<mxfile host="Electron" agent="Mozilla/5.0 (Windows NT 10.0; Win64; x64) AppleWebKit/537.36 (KHTML, like Gecko) draw.io/26.0.9 Chrome/128.0.6613.186 Electron/32.2.5 Safari/537.36" version="26.0.9">
  <diagram name="Страница — 1" id="3rEHN03cR6sOrE22dE50">
    <mxGraphModel dx="2049" dy="1194" grid="1" gridSize="10" guides="1" tooltips="1" connect="1" arrows="1" fold="1" page="1" pageScale="1" pageWidth="827" pageHeight="1169" math="0" shadow="0">
      <root>
        <mxCell id="0" />
        <mxCell id="1" parent="0" />
        <mxCell id="ZvhyKIQb9n0oeBW530T0-1" value="" style="edgeStyle=orthogonalEdgeStyle;rounded=0;orthogonalLoop=1;jettySize=auto;html=1;" edge="1" source="ZvhyKIQb9n0oeBW530T0-2" parent="1">
          <mxGeometry relative="1" as="geometry">
            <mxPoint x="240" y="140" as="targetPoint" />
          </mxGeometry>
        </mxCell>
        <mxCell id="ZvhyKIQb9n0oeBW530T0-2" value="Начало" style="ellipse;whiteSpace=wrap;html=1;" vertex="1" parent="1">
          <mxGeometry x="180" y="70" width="120" height="40" as="geometry" />
        </mxCell>
        <mxCell id="ZvhyKIQb9n0oeBW530T0-3" value="" style="edgeStyle=orthogonalEdgeStyle;rounded=0;orthogonalLoop=1;jettySize=auto;html=1;" edge="1" source="ZvhyKIQb9n0oeBW530T0-4" parent="1">
          <mxGeometry relative="1" as="geometry">
            <mxPoint x="240" y="190" as="targetPoint" />
          </mxGeometry>
        </mxCell>
        <mxCell id="ZvhyKIQb9n0oeBW530T0-4" value="int main()" style="shape=process;whiteSpace=wrap;html=1;backgroundOutline=1;" vertex="1" parent="1">
          <mxGeometry x="180" y="140" width="120" height="30" as="geometry" />
        </mxCell>
        <mxCell id="ZvhyKIQb9n0oeBW530T0-5" value="srand(time(NULL));" style="rounded=0;whiteSpace=wrap;html=1;" vertex="1" parent="1">
          <mxGeometry x="180" y="190" width="120" height="30" as="geometry" />
        </mxCell>
        <mxCell id="ZvhyKIQb9n0oeBW530T0-6" value="" style="edgeStyle=orthogonalEdgeStyle;rounded=0;orthogonalLoop=1;jettySize=auto;html=1;" edge="1" parent="1">
          <mxGeometry relative="1" as="geometry">
            <mxPoint x="240" y="220" as="sourcePoint" />
            <mxPoint x="240" y="240" as="targetPoint" />
          </mxGeometry>
        </mxCell>
        <mxCell id="ZvhyKIQb9n0oeBW530T0-7" value="setlocale(LC_ALL, &quot;Russian&quot;);" style="rounded=0;whiteSpace=wrap;html=1;" vertex="1" parent="1">
          <mxGeometry x="180" y="240" width="120" height="30" as="geometry" />
        </mxCell>
        <mxCell id="ZvhyKIQb9n0oeBW530T0-9" value="&lt;div&gt;#define _CRT_SECURE_NO_WARNINGS&lt;/div&gt;&lt;div&gt;#include &amp;lt;iostream&amp;gt;&lt;/div&gt;&lt;div&gt;#include &amp;lt;string&amp;gt;&lt;/div&gt;&lt;div&gt;#include &amp;lt;cmath&amp;gt; // для modf&lt;/div&gt;&lt;div&gt;#include &amp;lt;cstdlib&amp;gt; // для rand и srand&lt;/div&gt;&lt;div&gt;#include &amp;lt;cstdio&amp;gt;&lt;/div&gt;&lt;div&gt;#include &amp;lt;ctime&amp;gt; // для time&lt;/div&gt;&lt;div&gt;using namespace std;&lt;/div&gt;&lt;div&gt;&lt;div&gt;const int SIZE = 100; // Размер хеш-таблицы&lt;/div&gt;&lt;div&gt;const double A = 0.6180339887; // Константа для хеш-функции&lt;/div&gt;&lt;/div&gt;&lt;div&gt;Student* table[SIZE] = { nullptr };&lt;br&gt;&lt;/div&gt;&lt;div&gt;int collisions = 0;&lt;br&gt;&lt;/div&gt;" style="strokeWidth=2;html=1;shape=mxgraph.flowchart.annotation_2;align=left;labelPosition=right;pointerEvents=1;" vertex="1" parent="1">
          <mxGeometry x="320" y="40" width="50" height="160" as="geometry" />
        </mxCell>
        <mxCell id="ZvhyKIQb9n0oeBW530T0-10" value="" style="endArrow=none;dashed=1;html=1;rounded=0;entryX=-0.04;entryY=0.503;entryDx=0;entryDy=0;entryPerimeter=0;" edge="1" target="ZvhyKIQb9n0oeBW530T0-9" parent="1">
          <mxGeometry width="50" height="50" relative="1" as="geometry">
            <mxPoint x="240" y="120" as="sourcePoint" />
            <mxPoint x="310" y="120" as="targetPoint" />
          </mxGeometry>
        </mxCell>
        <mxCell id="ZvhyKIQb9n0oeBW530T0-21" value="" style="edgeStyle=orthogonalEdgeStyle;rounded=0;orthogonalLoop=1;jettySize=auto;html=1;" edge="1" parent="1">
          <mxGeometry relative="1" as="geometry">
            <mxPoint x="243.97142857142853" y="270" as="sourcePoint" />
            <mxPoint x="243.97142857142853" y="290" as="targetPoint" />
          </mxGeometry>
        </mxCell>
        <mxCell id="ZvhyKIQb9n0oeBW530T0-22" style="edgeStyle=orthogonalEdgeStyle;rounded=0;orthogonalLoop=1;jettySize=auto;html=1;exitX=1;exitY=0.5;exitDx=0;exitDy=0;" edge="1" source="ZvhyKIQb9n0oeBW530T0-23" parent="1">
          <mxGeometry relative="1" as="geometry">
            <mxPoint x="493.97142857142853" y="400" as="targetPoint" />
          </mxGeometry>
        </mxCell>
        <mxCell id="ZvhyKIQb9n0oeBW530T0-23" value="" style="verticalLabelPosition=bottom;verticalAlign=top;html=1;shape=hexagon;perimeter=hexagonPerimeter2;arcSize=6;size=0.11951219512195121;" vertex="1" parent="1">
          <mxGeometry x="139.47142857142853" y="290" width="205" height="50" as="geometry" />
        </mxCell>
        <mxCell id="ZvhyKIQb9n0oeBW530T0-24" value="" style="edgeStyle=orthogonalEdgeStyle;rounded=0;orthogonalLoop=1;jettySize=auto;html=1;" edge="1" parent="1">
          <mxGeometry relative="1" as="geometry">
            <mxPoint x="243.73142857142852" y="340" as="sourcePoint" />
            <mxPoint x="243.97142857142853" y="360" as="targetPoint" />
          </mxGeometry>
        </mxCell>
        <mxCell id="ZvhyKIQb9n0oeBW530T0-25" value="for (int i = 0; i &amp;lt; 40; i++)&amp;nbsp;" style="text;html=1;align=center;verticalAlign=middle;whiteSpace=wrap;rounded=0;" vertex="1" parent="1">
          <mxGeometry x="183.97142857142853" y="300" width="120" height="30" as="geometry" />
        </mxCell>
        <mxCell id="ZvhyKIQb9n0oeBW530T0-26" value="" style="edgeStyle=orthogonalEdgeStyle;rounded=0;orthogonalLoop=1;jettySize=auto;html=1;entryX=0;entryY=0.5;entryDx=0;entryDy=0;" edge="1" target="ZvhyKIQb9n0oeBW530T0-23" parent="1">
          <mxGeometry relative="1" as="geometry">
            <mxPoint x="243.97142857142853" y="390" as="sourcePoint" />
            <mxPoint x="123.97142857142853" y="360" as="targetPoint" />
            <Array as="points">
              <mxPoint x="243.97142857142853" y="440" />
              <mxPoint x="119.97142857142853" y="440" />
              <mxPoint x="119.97142857142853" y="315" />
            </Array>
          </mxGeometry>
        </mxCell>
        <mxCell id="ZvhyKIQb9n0oeBW530T0-27" value="insert(table, generateStudent(), collisions);" style="rounded=0;whiteSpace=wrap;html=1;" vertex="1" parent="1">
          <mxGeometry x="160" y="360" width="180" height="30" as="geometry" />
        </mxCell>
        <mxCell id="ZvhyKIQb9n0oeBW530T0-30" style="edgeStyle=orthogonalEdgeStyle;rounded=0;orthogonalLoop=1;jettySize=auto;html=1;exitX=0.5;exitY=1;exitDx=0;exitDy=0;" edge="1" parent="1" source="ZvhyKIQb9n0oeBW530T0-28">
          <mxGeometry relative="1" as="geometry">
            <mxPoint x="490.3103448275863" y="450" as="targetPoint" />
          </mxGeometry>
        </mxCell>
        <mxCell id="ZvhyKIQb9n0oeBW530T0-28" value="cout &amp;lt;&amp;lt; &quot;Коллизии для 40 объектов: &quot;&lt;div&gt;&amp;nbsp;&amp;lt;&amp;lt; collisions &amp;lt;&amp;lt; endl;&lt;/div&gt;" style="shape=parallelogram;perimeter=parallelogramPerimeter;whiteSpace=wrap;html=1;fixedSize=1;" vertex="1" parent="1">
          <mxGeometry x="340" y="400" width="300" height="30" as="geometry" />
        </mxCell>
        <mxCell id="ZvhyKIQb9n0oeBW530T0-31" value="saveToFile(table);" style="rounded=0;whiteSpace=wrap;html=1;" vertex="1" parent="1">
          <mxGeometry x="430" y="450" width="120" height="30" as="geometry" />
        </mxCell>
        <mxCell id="ZvhyKIQb9n0oeBW530T0-35" style="edgeStyle=orthogonalEdgeStyle;rounded=0;orthogonalLoop=1;jettySize=auto;html=1;exitX=0.5;exitY=1;exitDx=0;exitDy=0;" edge="1" parent="1">
          <mxGeometry relative="1" as="geometry">
            <mxPoint x="490.3103448275863" y="500" as="targetPoint" />
            <mxPoint x="490" y="480" as="sourcePoint" />
          </mxGeometry>
        </mxCell>
        <mxCell id="ZvhyKIQb9n0oeBW530T0-36" value="collisions = 0;" style="rounded=0;whiteSpace=wrap;html=1;" vertex="1" parent="1">
          <mxGeometry x="430" y="500" width="120" height="30" as="geometry" />
        </mxCell>
        <mxCell id="ZvhyKIQb9n0oeBW530T0-37" style="edgeStyle=orthogonalEdgeStyle;rounded=0;orthogonalLoop=1;jettySize=auto;html=1;exitX=0.5;exitY=1;exitDx=0;exitDy=0;" edge="1" parent="1">
          <mxGeometry relative="1" as="geometry">
            <mxPoint x="490.3103448275863" y="550" as="targetPoint" />
            <mxPoint x="490" y="530" as="sourcePoint" />
          </mxGeometry>
        </mxCell>
        <mxCell id="ZvhyKIQb9n0oeBW530T0-38" value="loadFromFile(table, collisions);" style="rounded=0;whiteSpace=wrap;html=1;" vertex="1" parent="1">
          <mxGeometry x="430" y="550" width="120" height="30" as="geometry" />
        </mxCell>
        <mxCell id="ZvhyKIQb9n0oeBW530T0-39" style="edgeStyle=orthogonalEdgeStyle;rounded=0;orthogonalLoop=1;jettySize=auto;html=1;exitX=0.5;exitY=1;exitDx=0;exitDy=0;" edge="1" parent="1">
          <mxGeometry relative="1" as="geometry">
            <mxPoint x="490.3103448275863" y="600" as="targetPoint" />
            <mxPoint x="490" y="580" as="sourcePoint" />
          </mxGeometry>
        </mxCell>
        <mxCell id="ZvhyKIQb9n0oeBW530T0-41" value="&amp;nbsp;cout &amp;lt;&amp;lt; &quot;Коллизии после загрузки из файла: &quot; &amp;lt;&amp;lt; collisions &amp;lt;&amp;lt; endl;" style="shape=parallelogram;perimeter=parallelogramPerimeter;whiteSpace=wrap;html=1;fixedSize=1;" vertex="1" parent="1">
          <mxGeometry x="360" y="600" width="300" height="30" as="geometry" />
        </mxCell>
        <mxCell id="ZvhyKIQb9n0oeBW530T0-42" value="" style="edgeStyle=orthogonalEdgeStyle;rounded=0;orthogonalLoop=1;jettySize=auto;html=1;" edge="1" parent="1">
          <mxGeometry relative="1" as="geometry">
            <mxPoint x="493.97142857142853" y="630" as="sourcePoint" />
            <mxPoint x="493.97142857142853" y="650" as="targetPoint" />
          </mxGeometry>
        </mxCell>
        <mxCell id="ZvhyKIQb9n0oeBW530T0-43" style="edgeStyle=orthogonalEdgeStyle;rounded=0;orthogonalLoop=1;jettySize=auto;html=1;exitX=1;exitY=0.5;exitDx=0;exitDy=0;" edge="1" source="ZvhyKIQb9n0oeBW530T0-44" parent="1">
          <mxGeometry relative="1" as="geometry">
            <mxPoint x="743.9714285714285" y="760" as="targetPoint" />
          </mxGeometry>
        </mxCell>
        <mxCell id="ZvhyKIQb9n0oeBW530T0-44" value="" style="verticalLabelPosition=bottom;verticalAlign=top;html=1;shape=hexagon;perimeter=hexagonPerimeter2;arcSize=6;size=0.11951219512195121;" vertex="1" parent="1">
          <mxGeometry x="389.47142857142853" y="650" width="205" height="50" as="geometry" />
        </mxCell>
        <mxCell id="ZvhyKIQb9n0oeBW530T0-45" value="" style="edgeStyle=orthogonalEdgeStyle;rounded=0;orthogonalLoop=1;jettySize=auto;html=1;" edge="1" parent="1">
          <mxGeometry relative="1" as="geometry">
            <mxPoint x="493.7314285714285" y="700" as="sourcePoint" />
            <mxPoint x="493.97142857142853" y="720" as="targetPoint" />
          </mxGeometry>
        </mxCell>
        <mxCell id="ZvhyKIQb9n0oeBW530T0-46" value="for (int i = 40; i &amp;lt; 75; i++)&amp;nbsp;" style="text;html=1;align=center;verticalAlign=middle;whiteSpace=wrap;rounded=0;" vertex="1" parent="1">
          <mxGeometry x="433.97142857142853" y="660" width="120" height="30" as="geometry" />
        </mxCell>
        <mxCell id="ZvhyKIQb9n0oeBW530T0-47" value="" style="edgeStyle=orthogonalEdgeStyle;rounded=0;orthogonalLoop=1;jettySize=auto;html=1;entryX=0;entryY=0.5;entryDx=0;entryDy=0;" edge="1" target="ZvhyKIQb9n0oeBW530T0-44" parent="1">
          <mxGeometry relative="1" as="geometry">
            <mxPoint x="493.97142857142853" y="750" as="sourcePoint" />
            <mxPoint x="373.97142857142853" y="720" as="targetPoint" />
            <Array as="points">
              <mxPoint x="493.97142857142853" y="800" />
              <mxPoint x="369.97142857142853" y="800" />
              <mxPoint x="369.97142857142853" y="675" />
            </Array>
          </mxGeometry>
        </mxCell>
        <mxCell id="ZvhyKIQb9n0oeBW530T0-48" value="insert(table, generateStudent(), collisions);" style="rounded=0;whiteSpace=wrap;html=1;" vertex="1" parent="1">
          <mxGeometry x="390" y="720" width="210" height="30" as="geometry" />
        </mxCell>
        <mxCell id="ZvhyKIQb9n0oeBW530T0-49" value="cout &amp;lt;&amp;lt; &quot;Коллизии для 75 объектов: &quot;&lt;div&gt;&amp;nbsp;&amp;lt;&amp;lt; collisions &amp;lt;&amp;lt; endl;&lt;/div&gt;" style="shape=parallelogram;perimeter=parallelogramPerimeter;whiteSpace=wrap;html=1;fixedSize=1;" vertex="1" parent="1">
          <mxGeometry x="600" y="760" width="300" height="30" as="geometry" />
        </mxCell>
        <mxCell id="ZvhyKIQb9n0oeBW530T0-57" value="" style="edgeStyle=orthogonalEdgeStyle;rounded=0;orthogonalLoop=1;jettySize=auto;html=1;" edge="1" parent="1">
          <mxGeometry relative="1" as="geometry">
            <mxPoint x="744.0014285714285" y="790" as="sourcePoint" />
            <mxPoint x="744.0014285714285" y="810" as="targetPoint" />
          </mxGeometry>
        </mxCell>
        <mxCell id="ZvhyKIQb9n0oeBW530T0-58" style="edgeStyle=orthogonalEdgeStyle;rounded=0;orthogonalLoop=1;jettySize=auto;html=1;exitX=1;exitY=0.5;exitDx=0;exitDy=0;" edge="1" parent="1" source="ZvhyKIQb9n0oeBW530T0-59">
          <mxGeometry relative="1" as="geometry">
            <mxPoint x="994.0014285714285" y="920" as="targetPoint" />
          </mxGeometry>
        </mxCell>
        <mxCell id="ZvhyKIQb9n0oeBW530T0-59" value="" style="verticalLabelPosition=bottom;verticalAlign=top;html=1;shape=hexagon;perimeter=hexagonPerimeter2;arcSize=6;size=0.11951219512195121;" vertex="1" parent="1">
          <mxGeometry x="639.5014285714285" y="810" width="205" height="50" as="geometry" />
        </mxCell>
        <mxCell id="ZvhyKIQb9n0oeBW530T0-60" value="" style="edgeStyle=orthogonalEdgeStyle;rounded=0;orthogonalLoop=1;jettySize=auto;html=1;" edge="1" parent="1">
          <mxGeometry relative="1" as="geometry">
            <mxPoint x="743.7614285714285" y="860" as="sourcePoint" />
            <mxPoint x="744.0014285714285" y="880" as="targetPoint" />
          </mxGeometry>
        </mxCell>
        <mxCell id="ZvhyKIQb9n0oeBW530T0-61" value="for (int i = 75; i &amp;lt; 90; i++)&amp;nbsp;" style="text;html=1;align=center;verticalAlign=middle;whiteSpace=wrap;rounded=0;" vertex="1" parent="1">
          <mxGeometry x="684.0014285714285" y="820" width="120" height="30" as="geometry" />
        </mxCell>
        <mxCell id="ZvhyKIQb9n0oeBW530T0-62" value="" style="edgeStyle=orthogonalEdgeStyle;rounded=0;orthogonalLoop=1;jettySize=auto;html=1;entryX=0;entryY=0.5;entryDx=0;entryDy=0;" edge="1" parent="1" target="ZvhyKIQb9n0oeBW530T0-59">
          <mxGeometry relative="1" as="geometry">
            <mxPoint x="744.0014285714285" y="910" as="sourcePoint" />
            <mxPoint x="624.0014285714285" y="880" as="targetPoint" />
            <Array as="points">
              <mxPoint x="744.0014285714285" y="960" />
              <mxPoint x="620.0014285714285" y="960" />
              <mxPoint x="620.0014285714285" y="835" />
            </Array>
          </mxGeometry>
        </mxCell>
        <mxCell id="ZvhyKIQb9n0oeBW530T0-63" value="insert(table, generateStudent(), collisions);" style="rounded=0;whiteSpace=wrap;html=1;" vertex="1" parent="1">
          <mxGeometry x="640.03" y="880" width="210" height="30" as="geometry" />
        </mxCell>
        <mxCell id="ZvhyKIQb9n0oeBW530T0-64" value="cout &amp;lt;&amp;lt; &quot;Коллизии для 90 объектов: &quot;&amp;nbsp;&lt;div&gt;&amp;lt;&amp;lt; collisions &amp;lt;&amp;lt; endl;&lt;/div&gt;" style="shape=parallelogram;perimeter=parallelogramPerimeter;whiteSpace=wrap;html=1;fixedSize=1;" vertex="1" parent="1">
          <mxGeometry x="850.03" y="920" width="300" height="30" as="geometry" />
        </mxCell>
        <mxCell id="ZvhyKIQb9n0oeBW530T0-65" value="" style="edgeStyle=orthogonalEdgeStyle;rounded=0;orthogonalLoop=1;jettySize=auto;html=1;" edge="1" parent="1">
          <mxGeometry relative="1" as="geometry">
            <mxPoint x="993.7314285714285" y="950" as="sourcePoint" />
            <mxPoint x="993.9714285714285" y="970" as="targetPoint" />
          </mxGeometry>
        </mxCell>
        <mxCell id="ZvhyKIQb9n0oeBW530T0-66" value="Student example = { &quot;Молочко Артём Анатольевич&quot;, &quot;111&quot;, &quot;111&quot;, &quot;23.01.2006&quot;, false };" style="rounded=0;whiteSpace=wrap;html=1;" vertex="1" parent="1">
          <mxGeometry x="850" y="970" width="310" height="30" as="geometry" />
        </mxCell>
        <mxCell id="ZvhyKIQb9n0oeBW530T0-68" value="" style="edgeStyle=orthogonalEdgeStyle;rounded=0;orthogonalLoop=1;jettySize=auto;html=1;" edge="1" parent="1">
          <mxGeometry relative="1" as="geometry">
            <mxPoint x="993.7614285714285" y="1000" as="sourcePoint" />
            <mxPoint x="994.0014285714285" y="1020" as="targetPoint" />
          </mxGeometry>
        </mxCell>
        <mxCell id="ZvhyKIQb9n0oeBW530T0-69" value="insert(table, example, collisions);" style="rounded=0;whiteSpace=wrap;html=1;" vertex="1" parent="1">
          <mxGeometry x="850.03" y="1020" width="310" height="30" as="geometry" />
        </mxCell>
        <mxCell id="ZvhyKIQb9n0oeBW530T0-70" value="" style="edgeStyle=orthogonalEdgeStyle;rounded=0;orthogonalLoop=1;jettySize=auto;html=1;" edge="1" parent="1">
          <mxGeometry relative="1" as="geometry">
            <mxPoint x="993.7614285714285" y="1050" as="sourcePoint" />
            <mxPoint x="994.0014285714285" y="1070" as="targetPoint" />
          </mxGeometry>
        </mxCell>
        <mxCell id="ZvhyKIQb9n0oeBW530T0-71" value="string searchKey = &quot;23.01.2006&quot;;" style="rounded=0;whiteSpace=wrap;html=1;" vertex="1" parent="1">
          <mxGeometry x="850.03" y="1070" width="310" height="30" as="geometry" />
        </mxCell>
        <mxCell id="ZvhyKIQb9n0oeBW530T0-72" value="" style="edgeStyle=orthogonalEdgeStyle;rounded=0;orthogonalLoop=1;jettySize=auto;html=1;" edge="1" parent="1">
          <mxGeometry relative="1" as="geometry">
            <mxPoint x="993.7914285714285" y="1100" as="sourcePoint" />
            <mxPoint x="994.0314285714285" y="1120" as="targetPoint" />
          </mxGeometry>
        </mxCell>
        <mxCell id="ZvhyKIQb9n0oeBW530T0-73" value="Student* foundStudent = search(table, searchKey);" style="rounded=0;whiteSpace=wrap;html=1;" vertex="1" parent="1">
          <mxGeometry x="850.06" y="1120" width="310" height="30" as="geometry" />
        </mxCell>
        <mxCell id="ZvhyKIQb9n0oeBW530T0-74" value="" style="edgeStyle=orthogonalEdgeStyle;rounded=0;orthogonalLoop=1;jettySize=auto;html=1;" edge="1" parent="1">
          <mxGeometry relative="1" as="geometry">
            <mxPoint x="993.702857142857" y="1150" as="sourcePoint" />
            <mxPoint x="993.9428571428571" y="1170" as="targetPoint" />
          </mxGeometry>
        </mxCell>
        <mxCell id="ZvhyKIQb9n0oeBW530T0-75" value="" style="edgeStyle=orthogonalEdgeStyle;rounded=0;orthogonalLoop=1;jettySize=auto;html=1;" edge="1" parent="1">
          <mxGeometry relative="1" as="geometry">
            <mxPoint x="993.9428571428571" y="1150" as="sourcePoint" />
            <mxPoint x="993.9428571428571" y="1170" as="targetPoint" />
          </mxGeometry>
        </mxCell>
        <mxCell id="ZvhyKIQb9n0oeBW530T0-76" style="edgeStyle=orthogonalEdgeStyle;rounded=0;orthogonalLoop=1;jettySize=auto;html=1;exitX=0;exitY=0.5;exitDx=0;exitDy=0;" edge="1" source="ZvhyKIQb9n0oeBW530T0-78" parent="1">
          <mxGeometry relative="1" as="geometry">
            <mxPoint x="850" y="1260" as="targetPoint" />
          </mxGeometry>
        </mxCell>
        <mxCell id="ZvhyKIQb9n0oeBW530T0-77" style="edgeStyle=orthogonalEdgeStyle;rounded=0;orthogonalLoop=1;jettySize=auto;html=1;exitX=1;exitY=0.5;exitDx=0;exitDy=0;" edge="1" source="ZvhyKIQb9n0oeBW530T0-78" parent="1">
          <mxGeometry relative="1" as="geometry">
            <mxPoint x="1149.9999999999998" y="1260" as="targetPoint" />
          </mxGeometry>
        </mxCell>
        <mxCell id="ZvhyKIQb9n0oeBW530T0-78" value="if (foundStudent != nullptr)&amp;nbsp;" style="rhombus;whiteSpace=wrap;html=1;" vertex="1" parent="1">
          <mxGeometry x="930" y="1170" width="130" height="80" as="geometry" />
        </mxCell>
        <mxCell id="ZvhyKIQb9n0oeBW530T0-79" style="edgeStyle=orthogonalEdgeStyle;rounded=0;orthogonalLoop=1;jettySize=auto;html=1;exitX=0.5;exitY=1;exitDx=0;exitDy=0;" edge="1" parent="1">
          <mxGeometry relative="1" as="geometry">
            <mxPoint x="999.9999999999998" y="1310" as="targetPoint" />
            <Array as="points">
              <mxPoint x="850" y="1310" />
            </Array>
            <mxPoint x="850" y="1290" as="sourcePoint" />
          </mxGeometry>
        </mxCell>
        <mxCell id="ZvhyKIQb9n0oeBW530T0-81" style="edgeStyle=orthogonalEdgeStyle;rounded=0;orthogonalLoop=1;jettySize=auto;html=1;exitX=0.5;exitY=1;exitDx=0;exitDy=0;" edge="1" parent="1">
          <mxGeometry relative="1" as="geometry">
            <mxPoint x="999.9999999999998" y="1310" as="targetPoint" />
            <Array as="points">
              <mxPoint x="1150" y="1310" />
            </Array>
            <mxPoint x="1150" y="1290" as="sourcePoint" />
          </mxGeometry>
        </mxCell>
        <mxCell id="ZvhyKIQb9n0oeBW530T0-83" value="cout &amp;lt;&amp;lt; &quot;Найден студент: &quot; &amp;lt;&amp;lt; foundStudent-&amp;gt;fio &amp;lt;&amp;lt; endl;" style="shape=parallelogram;perimeter=parallelogramPerimeter;whiteSpace=wrap;html=1;fixedSize=1;" vertex="1" parent="1">
          <mxGeometry x="670" y="1260" width="230" height="30" as="geometry" />
        </mxCell>
        <mxCell id="ZvhyKIQb9n0oeBW530T0-84" value="&amp;nbsp;cout &amp;lt;&amp;lt; &quot;Студент с датой рождения &quot; &amp;lt;&amp;lt; searchKey &amp;lt;&amp;lt; &quot; не найден.&quot; &amp;lt;&amp;lt; endl;" style="shape=parallelogram;perimeter=parallelogramPerimeter;whiteSpace=wrap;html=1;fixedSize=1;" vertex="1" parent="1">
          <mxGeometry x="1050" y="1260" width="230" height="30" as="geometry" />
        </mxCell>
        <mxCell id="ZvhyKIQb9n0oeBW530T0-85" value="" style="edgeStyle=orthogonalEdgeStyle;rounded=0;orthogonalLoop=1;jettySize=auto;html=1;" edge="1" parent="1">
          <mxGeometry relative="1" as="geometry">
            <mxPoint x="1003.7614285714285" y="1310" as="sourcePoint" />
            <mxPoint x="1004.0014285714285" y="1330" as="targetPoint" />
          </mxGeometry>
        </mxCell>
        <mxCell id="ZvhyKIQb9n0oeBW530T0-86" value="string deleteKey = &quot;23.01.2006&quot;;" style="rounded=0;whiteSpace=wrap;html=1;" vertex="1" parent="1">
          <mxGeometry x="860.03" y="1330" width="310" height="30" as="geometry" />
        </mxCell>
        <mxCell id="ZvhyKIQb9n0oeBW530T0-87" value="" style="edgeStyle=orthogonalEdgeStyle;rounded=0;orthogonalLoop=1;jettySize=auto;html=1;" edge="1" parent="1">
          <mxGeometry relative="1" as="geometry">
            <mxPoint x="1003.7614285714285" y="1360" as="sourcePoint" />
            <mxPoint x="1004.0014285714285" y="1380" as="targetPoint" />
          </mxGeometry>
        </mxCell>
        <mxCell id="ZvhyKIQb9n0oeBW530T0-88" value="remove(table, deleteKey);" style="rounded=0;whiteSpace=wrap;html=1;" vertex="1" parent="1">
          <mxGeometry x="860.03" y="1380" width="310" height="30" as="geometry" />
        </mxCell>
        <mxCell id="ZvhyKIQb9n0oeBW530T0-89" value="" style="edgeStyle=orthogonalEdgeStyle;rounded=0;orthogonalLoop=1;jettySize=auto;html=1;" edge="1" parent="1">
          <mxGeometry relative="1" as="geometry">
            <mxPoint x="1003.7914285714285" y="1410" as="sourcePoint" />
            <mxPoint x="1004.0314285714285" y="1430" as="targetPoint" />
          </mxGeometry>
        </mxCell>
        <mxCell id="ZvhyKIQb9n0oeBW530T0-90" value="cout &amp;lt;&amp;lt; &quot;Студент с датой рождения &quot; &amp;lt;&amp;lt; deleteKey &amp;lt;&amp;lt; &quot; удалён.&quot; &amp;lt;&amp;lt; endl;" style="shape=parallelogram;perimeter=parallelogramPerimeter;whiteSpace=wrap;html=1;fixedSize=1;" vertex="1" parent="1">
          <mxGeometry x="890.06" y="1430" width="230" height="30" as="geometry" />
        </mxCell>
        <mxCell id="ZvhyKIQb9n0oeBW530T0-91" value="" style="edgeStyle=orthogonalEdgeStyle;rounded=0;orthogonalLoop=1;jettySize=auto;html=1;" edge="1" parent="1">
          <mxGeometry relative="1" as="geometry">
            <mxPoint x="1003.9714285714285" y="1460" as="sourcePoint" />
            <mxPoint x="1003.9714285714285" y="1480" as="targetPoint" />
          </mxGeometry>
        </mxCell>
        <mxCell id="ZvhyKIQb9n0oeBW530T0-92" style="edgeStyle=orthogonalEdgeStyle;rounded=0;orthogonalLoop=1;jettySize=auto;html=1;exitX=1;exitY=0.5;exitDx=0;exitDy=0;" edge="1" source="ZvhyKIQb9n0oeBW530T0-93" parent="1">
          <mxGeometry relative="1" as="geometry">
            <mxPoint x="1253.9714285714285" y="1590" as="targetPoint" />
          </mxGeometry>
        </mxCell>
        <mxCell id="ZvhyKIQb9n0oeBW530T0-93" value="" style="verticalLabelPosition=bottom;verticalAlign=top;html=1;shape=hexagon;perimeter=hexagonPerimeter2;arcSize=6;size=0.11951219512195121;" vertex="1" parent="1">
          <mxGeometry x="899.4714285714285" y="1480" width="205" height="50" as="geometry" />
        </mxCell>
        <mxCell id="ZvhyKIQb9n0oeBW530T0-95" value="for (int i = 0; i &amp;lt; SIZE; i++)&amp;nbsp;" style="text;html=1;align=center;verticalAlign=middle;whiteSpace=wrap;rounded=0;" vertex="1" parent="1">
          <mxGeometry x="943.9714285714285" y="1490" width="120" height="30" as="geometry" />
        </mxCell>
        <mxCell id="ZvhyKIQb9n0oeBW530T0-99" value="" style="edgeStyle=orthogonalEdgeStyle;rounded=0;orthogonalLoop=1;jettySize=auto;html=1;" edge="1" parent="1">
          <mxGeometry relative="1" as="geometry">
            <mxPoint x="1007.702857142857" y="1530" as="sourcePoint" />
            <mxPoint x="1007.9428571428571" y="1550" as="targetPoint" />
          </mxGeometry>
        </mxCell>
        <mxCell id="ZvhyKIQb9n0oeBW530T0-100" value="" style="edgeStyle=orthogonalEdgeStyle;rounded=0;orthogonalLoop=1;jettySize=auto;html=1;" edge="1" parent="1">
          <mxGeometry relative="1" as="geometry">
            <mxPoint x="1007.9428571428571" y="1530" as="sourcePoint" />
            <mxPoint x="1007.9428571428571" y="1550" as="targetPoint" />
          </mxGeometry>
        </mxCell>
        <mxCell id="ZvhyKIQb9n0oeBW530T0-101" style="edgeStyle=orthogonalEdgeStyle;rounded=0;orthogonalLoop=1;jettySize=auto;html=1;exitX=0;exitY=0.5;exitDx=0;exitDy=0;" edge="1" source="ZvhyKIQb9n0oeBW530T0-103" parent="1">
          <mxGeometry relative="1" as="geometry">
            <mxPoint x="864" y="1640" as="targetPoint" />
          </mxGeometry>
        </mxCell>
        <mxCell id="ZvhyKIQb9n0oeBW530T0-103" value="if (table[i] != nullptr)&amp;nbsp;" style="rhombus;whiteSpace=wrap;html=1;" vertex="1" parent="1">
          <mxGeometry x="944" y="1550" width="130" height="80" as="geometry" />
        </mxCell>
        <mxCell id="ZvhyKIQb9n0oeBW530T0-104" style="edgeStyle=orthogonalEdgeStyle;rounded=0;orthogonalLoop=1;jettySize=auto;html=1;exitX=0.5;exitY=1;exitDx=0;exitDy=0;" edge="1" source="ZvhyKIQb9n0oeBW530T0-105" parent="1">
          <mxGeometry relative="1" as="geometry">
            <mxPoint x="1013.9999999999998" y="1690" as="targetPoint" />
            <Array as="points">
              <mxPoint x="864" y="1690" />
            </Array>
          </mxGeometry>
        </mxCell>
        <mxCell id="ZvhyKIQb9n0oeBW530T0-105" value="delete table[i];" style="rounded=0;whiteSpace=wrap;html=1;" vertex="1" parent="1">
          <mxGeometry x="804" y="1640" width="120" height="30" as="geometry" />
        </mxCell>
        <mxCell id="ZvhyKIQb9n0oeBW530T0-106" style="edgeStyle=orthogonalEdgeStyle;rounded=0;orthogonalLoop=1;jettySize=auto;html=1;exitX=1;exitY=0.5;exitDx=0;exitDy=0;" edge="1" source="ZvhyKIQb9n0oeBW530T0-103" parent="1">
          <mxGeometry relative="1" as="geometry">
            <mxPoint x="1013.9999999999998" y="1690" as="targetPoint" />
            <Array as="points">
              <mxPoint x="1164" y="1590" />
              <mxPoint x="1164" y="1690" />
            </Array>
            <mxPoint x="1164" y="1670" as="sourcePoint" />
          </mxGeometry>
        </mxCell>
        <mxCell id="ZvhyKIQb9n0oeBW530T0-108" value="1" style="text;html=1;align=center;verticalAlign=middle;resizable=0;points=[];autosize=1;strokeColor=none;fillColor=none;" vertex="1" parent="1">
          <mxGeometry x="895" y="1558" width="30" height="30" as="geometry" />
        </mxCell>
        <mxCell id="ZvhyKIQb9n0oeBW530T0-109" value="0" style="text;html=1;align=center;verticalAlign=middle;resizable=0;points=[];autosize=1;strokeColor=none;fillColor=none;" vertex="1" parent="1">
          <mxGeometry x="1085" y="1558" width="30" height="30" as="geometry" />
        </mxCell>
        <mxCell id="ZvhyKIQb9n0oeBW530T0-110" value="" style="endArrow=classic;html=1;rounded=0;entryX=0;entryY=0.5;entryDx=0;entryDy=0;" edge="1" parent="1" target="ZvhyKIQb9n0oeBW530T0-93">
          <mxGeometry width="50" height="50" relative="1" as="geometry">
            <mxPoint x="1010" y="1690" as="sourcePoint" />
            <mxPoint x="1010" y="1710" as="targetPoint" />
            <Array as="points">
              <mxPoint x="1010" y="1720" />
              <mxPoint x="800" y="1720" />
              <mxPoint x="800" y="1505" />
            </Array>
          </mxGeometry>
        </mxCell>
        <mxCell id="ZvhyKIQb9n0oeBW530T0-111" value="return 0;" style="ellipse;whiteSpace=wrap;html=1;" vertex="1" parent="1">
          <mxGeometry x="1200" y="1590" width="120" height="40" as="geometry" />
        </mxCell>
        <mxCell id="ZvhyKIQb9n0oeBW530T0-112" value="}" style="text;html=1;align=center;verticalAlign=middle;resizable=0;points=[];autosize=1;strokeColor=none;fillColor=none;" vertex="1" parent="1">
          <mxGeometry x="1290" y="1620" width="30" height="30" as="geometry" />
        </mxCell>
        <mxCell id="ZvhyKIQb9n0oeBW530T0-113" value="{" style="text;html=1;align=center;verticalAlign=middle;resizable=0;points=[];autosize=1;strokeColor=none;fillColor=none;" vertex="1" parent="1">
          <mxGeometry x="145" y="108" width="30" height="30" as="geometry" />
        </mxCell>
        <mxCell id="ZvhyKIQb9n0oeBW530T0-115" style="edgeStyle=orthogonalEdgeStyle;rounded=0;orthogonalLoop=1;jettySize=auto;html=1;exitX=0.5;exitY=1;exitDx=0;exitDy=0;" edge="1" parent="1" source="ZvhyKIQb9n0oeBW530T0-114">
          <mxGeometry relative="1" as="geometry">
            <mxPoint x="1570" y="120" as="targetPoint" />
          </mxGeometry>
        </mxCell>
        <mxCell id="ZvhyKIQb9n0oeBW530T0-114" value="struct Student&amp;nbsp;" style="shape=process;whiteSpace=wrap;html=1;backgroundOutline=1;" vertex="1" parent="1">
          <mxGeometry x="1510" y="70" width="120" height="30" as="geometry" />
        </mxCell>
        <mxCell id="ZvhyKIQb9n0oeBW530T0-116" value="string fio;" style="rounded=0;whiteSpace=wrap;html=1;" vertex="1" parent="1">
          <mxGeometry x="1505" y="120" width="130" height="30" as="geometry" />
        </mxCell>
        <mxCell id="ZvhyKIQb9n0oeBW530T0-117" style="edgeStyle=orthogonalEdgeStyle;rounded=0;orthogonalLoop=1;jettySize=auto;html=1;exitX=0.5;exitY=1;exitDx=0;exitDy=0;" edge="1" parent="1">
          <mxGeometry relative="1" as="geometry">
            <mxPoint x="1570" y="170" as="targetPoint" />
            <mxPoint x="1570" y="150" as="sourcePoint" />
          </mxGeometry>
        </mxCell>
        <mxCell id="ZvhyKIQb9n0oeBW530T0-118" value="string phone;" style="rounded=0;whiteSpace=wrap;html=1;" vertex="1" parent="1">
          <mxGeometry x="1505" y="170" width="130" height="30" as="geometry" />
        </mxCell>
        <mxCell id="ZvhyKIQb9n0oeBW530T0-119" style="edgeStyle=orthogonalEdgeStyle;rounded=0;orthogonalLoop=1;jettySize=auto;html=1;exitX=0.5;exitY=1;exitDx=0;exitDy=0;" edge="1" parent="1">
          <mxGeometry relative="1" as="geometry">
            <mxPoint x="1570" y="220" as="targetPoint" />
            <mxPoint x="1570" y="200" as="sourcePoint" />
          </mxGeometry>
        </mxCell>
        <mxCell id="ZvhyKIQb9n0oeBW530T0-120" value="string passport;" style="rounded=0;whiteSpace=wrap;html=1;" vertex="1" parent="1">
          <mxGeometry x="1505" y="220" width="130" height="30" as="geometry" />
        </mxCell>
        <mxCell id="ZvhyKIQb9n0oeBW530T0-121" style="edgeStyle=orthogonalEdgeStyle;rounded=0;orthogonalLoop=1;jettySize=auto;html=1;exitX=0.5;exitY=1;exitDx=0;exitDy=0;" edge="1" parent="1">
          <mxGeometry relative="1" as="geometry">
            <mxPoint x="1570" y="270" as="targetPoint" />
            <mxPoint x="1570" y="250" as="sourcePoint" />
          </mxGeometry>
        </mxCell>
        <mxCell id="ZvhyKIQb9n0oeBW530T0-122" value="string birthDate;" style="rounded=0;whiteSpace=wrap;html=1;" vertex="1" parent="1">
          <mxGeometry x="1505" y="270" width="130" height="30" as="geometry" />
        </mxCell>
        <mxCell id="ZvhyKIQb9n0oeBW530T0-123" style="edgeStyle=orthogonalEdgeStyle;rounded=0;orthogonalLoop=1;jettySize=auto;html=1;exitX=0.5;exitY=1;exitDx=0;exitDy=0;" edge="1" parent="1">
          <mxGeometry relative="1" as="geometry">
            <mxPoint x="1570" y="320" as="targetPoint" />
            <mxPoint x="1570" y="300" as="sourcePoint" />
          </mxGeometry>
        </mxCell>
        <mxCell id="ZvhyKIQb9n0oeBW530T0-124" value="bool isDeleted;" style="rounded=0;whiteSpace=wrap;html=1;" vertex="1" parent="1">
          <mxGeometry x="1505" y="320" width="130" height="30" as="geometry" />
        </mxCell>
        <mxCell id="ZvhyKIQb9n0oeBW530T0-125" value="{" style="text;html=1;align=center;verticalAlign=middle;resizable=0;points=[];autosize=1;strokeColor=none;fillColor=none;" vertex="1" parent="1">
          <mxGeometry x="1465" y="98" width="30" height="30" as="geometry" />
        </mxCell>
        <mxCell id="ZvhyKIQb9n0oeBW530T0-126" value="};" style="text;html=1;align=center;verticalAlign=middle;resizable=0;points=[];autosize=1;strokeColor=none;fillColor=none;" vertex="1" parent="1">
          <mxGeometry x="1635" y="338" width="30" height="30" as="geometry" />
        </mxCell>
        <mxCell id="ZvhyKIQb9n0oeBW530T0-128" style="edgeStyle=orthogonalEdgeStyle;rounded=0;orthogonalLoop=1;jettySize=auto;html=1;exitX=0.5;exitY=1;exitDx=0;exitDy=0;" edge="1" parent="1" source="ZvhyKIQb9n0oeBW530T0-127">
          <mxGeometry relative="1" as="geometry">
            <mxPoint x="2059.8571428571427" y="110" as="targetPoint" />
          </mxGeometry>
        </mxCell>
        <mxCell id="ZvhyKIQb9n0oeBW530T0-127" value="int hashFunction(const string&amp;amp; key)&amp;nbsp;" style="shape=process;whiteSpace=wrap;html=1;backgroundOutline=1;" vertex="1" parent="1">
          <mxGeometry x="1920" y="60" width="280" height="30" as="geometry" />
        </mxCell>
        <mxCell id="ZvhyKIQb9n0oeBW530T0-129" value="int dot1 = key.find(&#39;.&#39;);" style="rounded=0;whiteSpace=wrap;html=1;" vertex="1" parent="1">
          <mxGeometry x="1970" y="110" width="180" height="30" as="geometry" />
        </mxCell>
        <mxCell id="ZvhyKIQb9n0oeBW530T0-131" style="edgeStyle=orthogonalEdgeStyle;rounded=0;orthogonalLoop=1;jettySize=auto;html=1;exitX=0.5;exitY=1;exitDx=0;exitDy=0;" edge="1" parent="1">
          <mxGeometry relative="1" as="geometry">
            <mxPoint x="2059.8571428571427" y="160" as="targetPoint" />
            <mxPoint x="2060" y="140" as="sourcePoint" />
          </mxGeometry>
        </mxCell>
        <mxCell id="ZvhyKIQb9n0oeBW530T0-132" value="int dot2 = key.find(&#39;.&#39;, dot1 + 1);" style="rounded=0;whiteSpace=wrap;html=1;" vertex="1" parent="1">
          <mxGeometry x="1970" y="160" width="180" height="30" as="geometry" />
        </mxCell>
        <mxCell id="ZvhyKIQb9n0oeBW530T0-133" style="edgeStyle=orthogonalEdgeStyle;rounded=0;orthogonalLoop=1;jettySize=auto;html=1;exitX=0.5;exitY=1;exitDx=0;exitDy=0;" edge="1" parent="1">
          <mxGeometry relative="1" as="geometry">
            <mxPoint x="2059.8571428571427" y="210" as="targetPoint" />
            <mxPoint x="2060" y="190" as="sourcePoint" />
          </mxGeometry>
        </mxCell>
        <mxCell id="ZvhyKIQb9n0oeBW530T0-134" value="int day = stoi(key.substr(0, dot1));&amp;nbsp;" style="rounded=0;whiteSpace=wrap;html=1;" vertex="1" parent="1">
          <mxGeometry x="1970" y="210" width="180" height="30" as="geometry" />
        </mxCell>
        <mxCell id="ZvhyKIQb9n0oeBW530T0-135" style="edgeStyle=orthogonalEdgeStyle;rounded=0;orthogonalLoop=1;jettySize=auto;html=1;exitX=0.5;exitY=1;exitDx=0;exitDy=0;" edge="1" parent="1">
          <mxGeometry relative="1" as="geometry">
            <mxPoint x="2059.8571428571427" y="260" as="targetPoint" />
            <mxPoint x="2060" y="240" as="sourcePoint" />
          </mxGeometry>
        </mxCell>
        <mxCell id="ZvhyKIQb9n0oeBW530T0-136" value="int month = stoi(key.substr(dot1 + 1, dot2 - dot1 - 1));&amp;nbsp;" style="rounded=0;whiteSpace=wrap;html=1;" vertex="1" parent="1">
          <mxGeometry x="1970" y="260" width="180" height="30" as="geometry" />
        </mxCell>
        <mxCell id="ZvhyKIQb9n0oeBW530T0-137" style="edgeStyle=orthogonalEdgeStyle;rounded=0;orthogonalLoop=1;jettySize=auto;html=1;exitX=0.5;exitY=1;exitDx=0;exitDy=0;" edge="1" parent="1">
          <mxGeometry relative="1" as="geometry">
            <mxPoint x="2059.8571428571427" y="310" as="targetPoint" />
            <mxPoint x="2060" y="290" as="sourcePoint" />
          </mxGeometry>
        </mxCell>
        <mxCell id="ZvhyKIQb9n0oeBW530T0-138" value="int year = stoi(key.substr(dot2 + 1));&amp;nbsp;" style="rounded=0;whiteSpace=wrap;html=1;" vertex="1" parent="1">
          <mxGeometry x="1970" y="310" width="180" height="30" as="geometry" />
        </mxCell>
        <mxCell id="ZvhyKIQb9n0oeBW530T0-139" style="edgeStyle=orthogonalEdgeStyle;rounded=0;orthogonalLoop=1;jettySize=auto;html=1;exitX=0.5;exitY=1;exitDx=0;exitDy=0;" edge="1" parent="1">
          <mxGeometry relative="1" as="geometry">
            <mxPoint x="2059.8571428571427" y="360" as="targetPoint" />
            <mxPoint x="2060" y="340" as="sourcePoint" />
          </mxGeometry>
        </mxCell>
        <mxCell id="ZvhyKIQb9n0oeBW530T0-140" value="int k = day * 10000 + month * 100 + year;" style="rounded=0;whiteSpace=wrap;html=1;" vertex="1" parent="1">
          <mxGeometry x="1970" y="360" width="180" height="30" as="geometry" />
        </mxCell>
        <mxCell id="ZvhyKIQb9n0oeBW530T0-145" style="edgeStyle=orthogonalEdgeStyle;rounded=0;orthogonalLoop=1;jettySize=auto;html=1;exitX=0.5;exitY=1;exitDx=0;exitDy=0;" edge="1" parent="1">
          <mxGeometry relative="1" as="geometry">
            <mxPoint x="2059.8571428571427" y="410" as="targetPoint" />
            <mxPoint x="2060" y="390" as="sourcePoint" />
          </mxGeometry>
        </mxCell>
        <mxCell id="ZvhyKIQb9n0oeBW530T0-146" value="double fractional;" style="rounded=0;whiteSpace=wrap;html=1;" vertex="1" parent="1">
          <mxGeometry x="1970" y="410" width="180" height="30" as="geometry" />
        </mxCell>
        <mxCell id="ZvhyKIQb9n0oeBW530T0-147" style="edgeStyle=orthogonalEdgeStyle;rounded=0;orthogonalLoop=1;jettySize=auto;html=1;exitX=0.5;exitY=1;exitDx=0;exitDy=0;" edge="1" parent="1">
          <mxGeometry relative="1" as="geometry">
            <mxPoint x="2059.8571428571427" y="460" as="targetPoint" />
            <mxPoint x="2060" y="440" as="sourcePoint" />
          </mxGeometry>
        </mxCell>
        <mxCell id="ZvhyKIQb9n0oeBW530T0-149" style="edgeStyle=orthogonalEdgeStyle;rounded=0;orthogonalLoop=1;jettySize=auto;html=1;exitX=0.5;exitY=1;exitDx=0;exitDy=0;" edge="1" parent="1" source="ZvhyKIQb9n0oeBW530T0-148">
          <mxGeometry relative="1" as="geometry">
            <mxPoint x="2059.8571428571427" y="510" as="targetPoint" />
          </mxGeometry>
        </mxCell>
        <mxCell id="ZvhyKIQb9n0oeBW530T0-148" value="modf(k * A, &amp;amp;fractional);&amp;nbsp;" style="rounded=0;whiteSpace=wrap;html=1;" vertex="1" parent="1">
          <mxGeometry x="1970" y="460" width="180" height="30" as="geometry" />
        </mxCell>
        <mxCell id="ZvhyKIQb9n0oeBW530T0-150" value="return static_cast&amp;lt;int&amp;gt;(SIZE * fractional) % SIZE;" style="ellipse;whiteSpace=wrap;html=1;" vertex="1" parent="1">
          <mxGeometry x="1900" y="510" width="290" height="40" as="geometry" />
        </mxCell>
        <mxCell id="ZvhyKIQb9n0oeBW530T0-151" value="{" style="text;html=1;align=center;verticalAlign=middle;resizable=0;points=[];autosize=1;strokeColor=none;fillColor=none;" vertex="1" parent="1">
          <mxGeometry x="1915" y="98" width="30" height="30" as="geometry" />
        </mxCell>
        <mxCell id="ZvhyKIQb9n0oeBW530T0-152" value="}" style="text;html=1;align=center;verticalAlign=middle;resizable=0;points=[];autosize=1;strokeColor=none;fillColor=none;" vertex="1" parent="1">
          <mxGeometry x="2085" y="548" width="30" height="30" as="geometry" />
        </mxCell>
        <mxCell id="ZvhyKIQb9n0oeBW530T0-154" style="edgeStyle=orthogonalEdgeStyle;rounded=0;orthogonalLoop=1;jettySize=auto;html=1;exitX=0.5;exitY=1;exitDx=0;exitDy=0;" edge="1" parent="1" source="ZvhyKIQb9n0oeBW530T0-153">
          <mxGeometry relative="1" as="geometry">
            <mxPoint x="1950.2857142857147" y="670" as="targetPoint" />
          </mxGeometry>
        </mxCell>
        <mxCell id="ZvhyKIQb9n0oeBW530T0-153" value="void insert(Student* table[], const Student&amp;amp; student, int&amp;amp; collisions)" style="shape=process;whiteSpace=wrap;html=1;backgroundOutline=1;" vertex="1" parent="1">
          <mxGeometry x="1810" y="620" width="280" height="30" as="geometry" />
        </mxCell>
        <mxCell id="ZvhyKIQb9n0oeBW530T0-156" style="edgeStyle=orthogonalEdgeStyle;rounded=0;orthogonalLoop=1;jettySize=auto;html=1;exitX=0.5;exitY=1;exitDx=0;exitDy=0;" edge="1" parent="1" source="ZvhyKIQb9n0oeBW530T0-155">
          <mxGeometry relative="1" as="geometry">
            <mxPoint x="1950.2439024390246" y="720" as="targetPoint" />
          </mxGeometry>
        </mxCell>
        <mxCell id="ZvhyKIQb9n0oeBW530T0-155" value="int index = hashFunction(student.birthDate);" style="rounded=0;whiteSpace=wrap;html=1;" vertex="1" parent="1">
          <mxGeometry x="1860" y="670" width="180" height="30" as="geometry" />
        </mxCell>
        <mxCell id="ZvhyKIQb9n0oeBW530T0-173" style="edgeStyle=orthogonalEdgeStyle;rounded=0;orthogonalLoop=1;jettySize=auto;html=1;exitX=1;exitY=0.5;exitDx=0;exitDy=0;entryX=0.5;entryY=0;entryDx=0;entryDy=0;" edge="1" parent="1" source="ZvhyKIQb9n0oeBW530T0-157" target="ZvhyKIQb9n0oeBW530T0-168">
          <mxGeometry relative="1" as="geometry" />
        </mxCell>
        <mxCell id="ZvhyKIQb9n0oeBW530T0-157" value="while (table[index] != nullptr &amp;amp;&amp;amp; !table[index]-&amp;gt;isDeleted)&amp;nbsp;" style="rhombus;whiteSpace=wrap;html=1;" vertex="1" parent="1">
          <mxGeometry x="1845" y="720" width="210" height="80" as="geometry" />
        </mxCell>
        <mxCell id="ZvhyKIQb9n0oeBW530T0-158" style="edgeStyle=orthogonalEdgeStyle;rounded=0;orthogonalLoop=1;jettySize=auto;html=1;exitX=0.5;exitY=1;exitDx=0;exitDy=0;" edge="1" parent="1">
          <mxGeometry relative="1" as="geometry">
            <mxPoint x="1950.2857142857147" y="820" as="targetPoint" />
            <mxPoint x="1950" y="800" as="sourcePoint" />
          </mxGeometry>
        </mxCell>
        <mxCell id="ZvhyKIQb9n0oeBW530T0-159" style="edgeStyle=orthogonalEdgeStyle;rounded=0;orthogonalLoop=1;jettySize=auto;html=1;exitX=0.5;exitY=1;exitDx=0;exitDy=0;" edge="1" parent="1" source="ZvhyKIQb9n0oeBW530T0-160">
          <mxGeometry relative="1" as="geometry">
            <mxPoint x="1950.2439024390246" y="870" as="targetPoint" />
          </mxGeometry>
        </mxCell>
        <mxCell id="ZvhyKIQb9n0oeBW530T0-160" value="collisions++;" style="rounded=0;whiteSpace=wrap;html=1;" vertex="1" parent="1">
          <mxGeometry x="1860" y="820" width="180" height="30" as="geometry" />
        </mxCell>
        <mxCell id="ZvhyKIQb9n0oeBW530T0-163" style="edgeStyle=orthogonalEdgeStyle;rounded=0;orthogonalLoop=1;jettySize=auto;html=1;exitX=0.5;exitY=1;exitDx=0;exitDy=0;entryX=0;entryY=0.5;entryDx=0;entryDy=0;" edge="1" parent="1" source="ZvhyKIQb9n0oeBW530T0-162" target="ZvhyKIQb9n0oeBW530T0-157">
          <mxGeometry relative="1" as="geometry" />
        </mxCell>
        <mxCell id="ZvhyKIQb9n0oeBW530T0-162" value="index = (index + 1) % SIZE;" style="rounded=0;whiteSpace=wrap;html=1;" vertex="1" parent="1">
          <mxGeometry x="1860" y="870" width="180" height="30" as="geometry" />
        </mxCell>
        <mxCell id="ZvhyKIQb9n0oeBW530T0-166" style="edgeStyle=orthogonalEdgeStyle;rounded=0;orthogonalLoop=1;jettySize=auto;html=1;exitX=0;exitY=0.5;exitDx=0;exitDy=0;" edge="1" source="ZvhyKIQb9n0oeBW530T0-168" parent="1">
          <mxGeometry relative="1" as="geometry">
            <mxPoint x="2070" y="940.0000000000001" as="targetPoint" />
          </mxGeometry>
        </mxCell>
        <mxCell id="ZvhyKIQb9n0oeBW530T0-168" value="if (table[index] != nullptr&amp;nbsp;&lt;div&gt;&amp;amp;&amp;amp; table[index]-&amp;gt;isDeleted)&lt;/div&gt;" style="rhombus;whiteSpace=wrap;html=1;" vertex="1" parent="1">
          <mxGeometry x="2110" y="850" width="220" height="80" as="geometry" />
        </mxCell>
        <mxCell id="ZvhyKIQb9n0oeBW530T0-169" style="edgeStyle=orthogonalEdgeStyle;rounded=0;orthogonalLoop=1;jettySize=auto;html=1;exitX=0.5;exitY=1;exitDx=0;exitDy=0;" edge="1" source="ZvhyKIQb9n0oeBW530T0-170" parent="1">
          <mxGeometry relative="1" as="geometry">
            <mxPoint x="2220" y="990.0000000000001" as="targetPoint" />
            <Array as="points">
              <mxPoint x="2070" y="990.0000000000001" />
            </Array>
          </mxGeometry>
        </mxCell>
        <mxCell id="ZvhyKIQb9n0oeBW530T0-170" value="delete table[index];" style="rounded=0;whiteSpace=wrap;html=1;" vertex="1" parent="1">
          <mxGeometry x="2010" y="940.0000000000001" width="120" height="30" as="geometry" />
        </mxCell>
        <mxCell id="ZvhyKIQb9n0oeBW530T0-171" style="edgeStyle=orthogonalEdgeStyle;rounded=0;orthogonalLoop=1;jettySize=auto;html=1;exitX=1;exitY=0.5;exitDx=0;exitDy=0;" edge="1" source="ZvhyKIQb9n0oeBW530T0-168" parent="1">
          <mxGeometry relative="1" as="geometry">
            <mxPoint x="2220" y="990.0000000000001" as="targetPoint" />
            <Array as="points">
              <mxPoint x="2370" y="890" />
              <mxPoint x="2370" y="990" />
            </Array>
            <mxPoint x="2370" y="970" as="sourcePoint" />
          </mxGeometry>
        </mxCell>
        <mxCell id="ZvhyKIQb9n0oeBW530T0-174" style="edgeStyle=orthogonalEdgeStyle;rounded=0;orthogonalLoop=1;jettySize=auto;html=1;exitX=0.5;exitY=1;exitDx=0;exitDy=0;" edge="1" parent="1">
          <mxGeometry relative="1" as="geometry">
            <mxPoint x="2220.2857142857147" y="1005" as="targetPoint" />
            <mxPoint x="2220" y="985" as="sourcePoint" />
          </mxGeometry>
        </mxCell>
        <mxCell id="ZvhyKIQb9n0oeBW530T0-175" style="edgeStyle=orthogonalEdgeStyle;rounded=0;orthogonalLoop=1;jettySize=auto;html=1;exitX=0.5;exitY=1;exitDx=0;exitDy=0;" edge="1" parent="1" source="ZvhyKIQb9n0oeBW530T0-176">
          <mxGeometry relative="1" as="geometry">
            <mxPoint x="2220.2439024390246" y="1055" as="targetPoint" />
          </mxGeometry>
        </mxCell>
        <mxCell id="ZvhyKIQb9n0oeBW530T0-176" value="table[index] = new Student(student);" style="rounded=0;whiteSpace=wrap;html=1;" vertex="1" parent="1">
          <mxGeometry x="2130" y="1005" width="180" height="30" as="geometry" />
        </mxCell>
        <mxCell id="ZvhyKIQb9n0oeBW530T0-178" style="edgeStyle=orthogonalEdgeStyle;rounded=0;orthogonalLoop=1;jettySize=auto;html=1;exitX=0.5;exitY=1;exitDx=0;exitDy=0;" edge="1" parent="1" source="ZvhyKIQb9n0oeBW530T0-177">
          <mxGeometry relative="1" as="geometry">
            <mxPoint x="2219.8571428571427" y="1100" as="targetPoint" />
          </mxGeometry>
        </mxCell>
        <mxCell id="ZvhyKIQb9n0oeBW530T0-177" value="table[index]-&amp;gt;isDeleted = false;" style="rounded=0;whiteSpace=wrap;html=1;" vertex="1" parent="1">
          <mxGeometry x="2130" y="1055" width="180" height="30" as="geometry" />
        </mxCell>
        <mxCell id="ZvhyKIQb9n0oeBW530T0-179" value="return;" style="ellipse;whiteSpace=wrap;html=1;" vertex="1" parent="1">
          <mxGeometry x="2160" y="1100" width="120" height="40" as="geometry" />
        </mxCell>
        <mxCell id="ZvhyKIQb9n0oeBW530T0-180" value="}" style="text;html=1;align=center;verticalAlign=middle;resizable=0;points=[];autosize=1;strokeColor=none;fillColor=none;" vertex="1" parent="1">
          <mxGeometry x="2285" y="1108" width="30" height="30" as="geometry" />
        </mxCell>
        <mxCell id="ZvhyKIQb9n0oeBW530T0-181" value="{" style="text;html=1;align=center;verticalAlign=middle;resizable=0;points=[];autosize=1;strokeColor=none;fillColor=none;" vertex="1" parent="1">
          <mxGeometry x="1825" y="658" width="30" height="30" as="geometry" />
        </mxCell>
        <mxCell id="ZvhyKIQb9n0oeBW530T0-182" style="edgeStyle=orthogonalEdgeStyle;rounded=0;orthogonalLoop=1;jettySize=auto;html=1;exitX=0.5;exitY=1;exitDx=0;exitDy=0;" edge="1" parent="1" source="ZvhyKIQb9n0oeBW530T0-183">
          <mxGeometry relative="1" as="geometry">
            <mxPoint x="1905.2857142857147" y="1180" as="targetPoint" />
          </mxGeometry>
        </mxCell>
        <mxCell id="ZvhyKIQb9n0oeBW530T0-183" value="Student* search(Student* table[], const string&amp;amp; birthDate)&amp;nbsp;" style="shape=process;whiteSpace=wrap;html=1;backgroundOutline=1;" vertex="1" parent="1">
          <mxGeometry x="1765" y="1130" width="280" height="30" as="geometry" />
        </mxCell>
        <mxCell id="ZvhyKIQb9n0oeBW530T0-184" style="edgeStyle=orthogonalEdgeStyle;rounded=0;orthogonalLoop=1;jettySize=auto;html=1;exitX=0.5;exitY=1;exitDx=0;exitDy=0;" edge="1" parent="1" source="ZvhyKIQb9n0oeBW530T0-185">
          <mxGeometry relative="1" as="geometry">
            <mxPoint x="1905.2439024390246" y="1230" as="targetPoint" />
          </mxGeometry>
        </mxCell>
        <mxCell id="ZvhyKIQb9n0oeBW530T0-185" value="int index = hashFunction(birthDate);" style="rounded=0;whiteSpace=wrap;html=1;" vertex="1" parent="1">
          <mxGeometry x="1815" y="1180" width="180" height="30" as="geometry" />
        </mxCell>
        <mxCell id="ZvhyKIQb9n0oeBW530T0-186" style="edgeStyle=orthogonalEdgeStyle;rounded=0;orthogonalLoop=1;jettySize=auto;html=1;exitX=1;exitY=0.5;exitDx=0;exitDy=0;entryX=0.5;entryY=0;entryDx=0;entryDy=0;" edge="1" parent="1" source="ZvhyKIQb9n0oeBW530T0-187">
          <mxGeometry relative="1" as="geometry">
            <mxPoint x="2175" y="1360.0000000000002" as="targetPoint" />
          </mxGeometry>
        </mxCell>
        <mxCell id="ZvhyKIQb9n0oeBW530T0-187" value="while (table[index] != nullptr)&amp;nbsp;" style="rhombus;whiteSpace=wrap;html=1;" vertex="1" parent="1">
          <mxGeometry x="1800" y="1230" width="210" height="80" as="geometry" />
        </mxCell>
        <mxCell id="ZvhyKIQb9n0oeBW530T0-205" value="{" style="text;html=1;align=center;verticalAlign=middle;resizable=0;points=[];autosize=1;strokeColor=none;fillColor=none;" vertex="1" parent="1">
          <mxGeometry x="1780" y="1168" width="30" height="30" as="geometry" />
        </mxCell>
        <mxCell id="ZvhyKIQb9n0oeBW530T0-208" value="" style="edgeStyle=orthogonalEdgeStyle;rounded=0;orthogonalLoop=1;jettySize=auto;html=1;" edge="1" parent="1">
          <mxGeometry relative="1" as="geometry">
            <mxPoint x="1903.702857142857" y="1310" as="sourcePoint" />
            <mxPoint x="1903.942857142857" y="1330" as="targetPoint" />
          </mxGeometry>
        </mxCell>
        <mxCell id="ZvhyKIQb9n0oeBW530T0-209" value="" style="edgeStyle=orthogonalEdgeStyle;rounded=0;orthogonalLoop=1;jettySize=auto;html=1;" edge="1" parent="1">
          <mxGeometry relative="1" as="geometry">
            <mxPoint x="1903.942857142857" y="1310" as="sourcePoint" />
            <mxPoint x="1903.942857142857" y="1330" as="targetPoint" />
          </mxGeometry>
        </mxCell>
        <mxCell id="ZvhyKIQb9n0oeBW530T0-210" style="edgeStyle=orthogonalEdgeStyle;rounded=0;orthogonalLoop=1;jettySize=auto;html=1;exitX=0;exitY=0.5;exitDx=0;exitDy=0;" edge="1" source="ZvhyKIQb9n0oeBW530T0-212" parent="1">
          <mxGeometry relative="1" as="geometry">
            <mxPoint x="1760" y="1420" as="targetPoint" />
          </mxGeometry>
        </mxCell>
        <mxCell id="ZvhyKIQb9n0oeBW530T0-212" value="if (!table[index]-&amp;gt;isDeleted&lt;div&gt;&amp;amp;&amp;amp; table[index]-&amp;gt;birthDate&amp;nbsp;&lt;/div&gt;&lt;div&gt;== birthDate)&lt;/div&gt;" style="rhombus;whiteSpace=wrap;html=1;" vertex="1" parent="1">
          <mxGeometry x="1790" y="1330" width="230" height="80" as="geometry" />
        </mxCell>
        <mxCell id="ZvhyKIQb9n0oeBW530T0-213" style="edgeStyle=orthogonalEdgeStyle;rounded=0;orthogonalLoop=1;jettySize=auto;html=1;exitX=0.5;exitY=1;exitDx=0;exitDy=0;" edge="1" parent="1">
          <mxGeometry relative="1" as="geometry">
            <mxPoint x="1909.9999999999998" y="1470" as="targetPoint" />
            <Array as="points">
              <mxPoint x="1760" y="1470" />
            </Array>
            <mxPoint x="1760" y="1450.0000000000002" as="sourcePoint" />
          </mxGeometry>
        </mxCell>
        <mxCell id="ZvhyKIQb9n0oeBW530T0-215" style="edgeStyle=orthogonalEdgeStyle;rounded=0;orthogonalLoop=1;jettySize=auto;html=1;exitX=1;exitY=0.5;exitDx=0;exitDy=0;" edge="1" source="ZvhyKIQb9n0oeBW530T0-212" parent="1">
          <mxGeometry relative="1" as="geometry">
            <mxPoint x="1909.9999999999998" y="1470" as="targetPoint" />
            <Array as="points">
              <mxPoint x="2060" y="1370" />
              <mxPoint x="2060" y="1470" />
            </Array>
            <mxPoint x="2060" y="1450.0000000000002" as="sourcePoint" />
          </mxGeometry>
        </mxCell>
        <mxCell id="ZvhyKIQb9n0oeBW530T0-217" value="return table[index];" style="ellipse;whiteSpace=wrap;html=1;" vertex="1" parent="1">
          <mxGeometry x="1705" y="1420" width="120" height="40" as="geometry" />
        </mxCell>
        <mxCell id="ZvhyKIQb9n0oeBW530T0-218" style="edgeStyle=orthogonalEdgeStyle;rounded=0;orthogonalLoop=1;jettySize=auto;html=1;exitX=0.5;exitY=1;exitDx=0;exitDy=0;" edge="1" parent="1">
          <mxGeometry relative="1" as="geometry">
            <mxPoint x="1915.2857142857147" y="1490" as="targetPoint" />
            <mxPoint x="1915" y="1470" as="sourcePoint" />
          </mxGeometry>
        </mxCell>
        <mxCell id="ZvhyKIQb9n0oeBW530T0-220" style="edgeStyle=orthogonalEdgeStyle;rounded=0;orthogonalLoop=1;jettySize=auto;html=1;exitX=0.5;exitY=1;exitDx=0;exitDy=0;entryX=0;entryY=0.5;entryDx=0;entryDy=0;" edge="1" parent="1" source="ZvhyKIQb9n0oeBW530T0-219" target="ZvhyKIQb9n0oeBW530T0-187">
          <mxGeometry relative="1" as="geometry">
            <mxPoint x="1915.1379310344828" y="1540" as="targetPoint" />
            <Array as="points">
              <mxPoint x="1915" y="1540" />
              <mxPoint x="1690" y="1540" />
              <mxPoint x="1690" y="1270" />
            </Array>
          </mxGeometry>
        </mxCell>
        <mxCell id="ZvhyKIQb9n0oeBW530T0-219" value="index = (index + 1) % SIZE;" style="rounded=0;whiteSpace=wrap;html=1;" vertex="1" parent="1">
          <mxGeometry x="1825" y="1490" width="180" height="30" as="geometry" />
        </mxCell>
        <mxCell id="ZvhyKIQb9n0oeBW530T0-221" value="return nullptr;" style="ellipse;whiteSpace=wrap;html=1;" vertex="1" parent="1">
          <mxGeometry x="2115" y="1360" width="120" height="40" as="geometry" />
        </mxCell>
        <mxCell id="ZvhyKIQb9n0oeBW530T0-222" value="}" style="text;html=1;align=center;verticalAlign=middle;resizable=0;points=[];autosize=1;strokeColor=none;fillColor=none;" vertex="1" parent="1">
          <mxGeometry x="2185" y="1398" width="30" height="30" as="geometry" />
        </mxCell>
        <mxCell id="ZvhyKIQb9n0oeBW530T0-223" style="edgeStyle=orthogonalEdgeStyle;rounded=0;orthogonalLoop=1;jettySize=auto;html=1;exitX=0.5;exitY=1;exitDx=0;exitDy=0;" edge="1" parent="1" source="ZvhyKIQb9n0oeBW530T0-224">
          <mxGeometry relative="1" as="geometry">
            <mxPoint x="1880.2857142857147" y="1660" as="targetPoint" />
          </mxGeometry>
        </mxCell>
        <mxCell id="ZvhyKIQb9n0oeBW530T0-224" value="void remove(Student* table[], const string&amp;amp; birthDate)" style="shape=process;whiteSpace=wrap;html=1;backgroundOutline=1;" vertex="1" parent="1">
          <mxGeometry x="1740" y="1610" width="280" height="30" as="geometry" />
        </mxCell>
        <mxCell id="ZvhyKIQb9n0oeBW530T0-225" style="edgeStyle=orthogonalEdgeStyle;rounded=0;orthogonalLoop=1;jettySize=auto;html=1;exitX=0.5;exitY=1;exitDx=0;exitDy=0;" edge="1" parent="1" source="ZvhyKIQb9n0oeBW530T0-226">
          <mxGeometry relative="1" as="geometry">
            <mxPoint x="1880.2439024390246" y="1710" as="targetPoint" />
          </mxGeometry>
        </mxCell>
        <mxCell id="ZvhyKIQb9n0oeBW530T0-226" value="int index = hashFunction(birthDate);" style="rounded=0;whiteSpace=wrap;html=1;" vertex="1" parent="1">
          <mxGeometry x="1790" y="1660" width="180" height="30" as="geometry" />
        </mxCell>
        <mxCell id="ZvhyKIQb9n0oeBW530T0-227" style="edgeStyle=orthogonalEdgeStyle;rounded=0;orthogonalLoop=1;jettySize=auto;html=1;exitX=1;exitY=0.5;exitDx=0;exitDy=0;entryX=0.5;entryY=0;entryDx=0;entryDy=0;" edge="1" parent="1" source="ZvhyKIQb9n0oeBW530T0-228">
          <mxGeometry relative="1" as="geometry">
            <mxPoint x="2150" y="1840.0000000000002" as="targetPoint" />
          </mxGeometry>
        </mxCell>
        <mxCell id="ZvhyKIQb9n0oeBW530T0-228" value="while (table[index] != nullptr)&amp;nbsp;" style="rhombus;whiteSpace=wrap;html=1;" vertex="1" parent="1">
          <mxGeometry x="1775" y="1710" width="210" height="80" as="geometry" />
        </mxCell>
        <mxCell id="ZvhyKIQb9n0oeBW530T0-229" value="{" style="text;html=1;align=center;verticalAlign=middle;resizable=0;points=[];autosize=1;strokeColor=none;fillColor=none;" vertex="1" parent="1">
          <mxGeometry x="1755" y="1648" width="30" height="30" as="geometry" />
        </mxCell>
        <mxCell id="ZvhyKIQb9n0oeBW530T0-230" value="" style="edgeStyle=orthogonalEdgeStyle;rounded=0;orthogonalLoop=1;jettySize=auto;html=1;" edge="1" parent="1">
          <mxGeometry relative="1" as="geometry">
            <mxPoint x="1878.702857142857" y="1790" as="sourcePoint" />
            <mxPoint x="1878.942857142857" y="1810" as="targetPoint" />
          </mxGeometry>
        </mxCell>
        <mxCell id="ZvhyKIQb9n0oeBW530T0-231" value="" style="edgeStyle=orthogonalEdgeStyle;rounded=0;orthogonalLoop=1;jettySize=auto;html=1;" edge="1" parent="1">
          <mxGeometry relative="1" as="geometry">
            <mxPoint x="1878.942857142857" y="1790" as="sourcePoint" />
            <mxPoint x="1878.942857142857" y="1810" as="targetPoint" />
          </mxGeometry>
        </mxCell>
        <mxCell id="ZvhyKIQb9n0oeBW530T0-232" style="edgeStyle=orthogonalEdgeStyle;rounded=0;orthogonalLoop=1;jettySize=auto;html=1;exitX=0;exitY=0.5;exitDx=0;exitDy=0;" edge="1" parent="1" source="ZvhyKIQb9n0oeBW530T0-233">
          <mxGeometry relative="1" as="geometry">
            <mxPoint x="1735" y="1900" as="targetPoint" />
          </mxGeometry>
        </mxCell>
        <mxCell id="ZvhyKIQb9n0oeBW530T0-233" value="f (!table[index]-&amp;gt;isDeleted&amp;nbsp;&lt;div&gt;&amp;amp;&amp;amp; table[index]-&amp;gt;birthDate&lt;/div&gt;&lt;div&gt;&amp;nbsp;== birthDate)&amp;nbsp;&lt;br&gt;&lt;/div&gt;" style="rhombus;whiteSpace=wrap;html=1;" vertex="1" parent="1">
          <mxGeometry x="1765" y="1810" width="230" height="80" as="geometry" />
        </mxCell>
        <mxCell id="ZvhyKIQb9n0oeBW530T0-234" style="edgeStyle=orthogonalEdgeStyle;rounded=0;orthogonalLoop=1;jettySize=auto;html=1;exitX=0.5;exitY=1;exitDx=0;exitDy=0;" edge="1" parent="1">
          <mxGeometry relative="1" as="geometry">
            <mxPoint x="1884.9999999999998" y="1950" as="targetPoint" />
            <Array as="points">
              <mxPoint x="1735" y="1950" />
            </Array>
            <mxPoint x="1735" y="1930.0000000000002" as="sourcePoint" />
          </mxGeometry>
        </mxCell>
        <mxCell id="ZvhyKIQb9n0oeBW530T0-235" style="edgeStyle=orthogonalEdgeStyle;rounded=0;orthogonalLoop=1;jettySize=auto;html=1;exitX=1;exitY=0.5;exitDx=0;exitDy=0;" edge="1" parent="1" source="ZvhyKIQb9n0oeBW530T0-233">
          <mxGeometry relative="1" as="geometry">
            <mxPoint x="1884.9999999999998" y="1950" as="targetPoint" />
            <Array as="points">
              <mxPoint x="2035" y="1850" />
              <mxPoint x="2035" y="1950" />
            </Array>
            <mxPoint x="2035" y="1930.0000000000002" as="sourcePoint" />
          </mxGeometry>
        </mxCell>
        <mxCell id="ZvhyKIQb9n0oeBW530T0-236" value="return table[index];" style="ellipse;whiteSpace=wrap;html=1;" vertex="1" parent="1">
          <mxGeometry x="1680" y="1900" width="120" height="40" as="geometry" />
        </mxCell>
        <mxCell id="ZvhyKIQb9n0oeBW530T0-237" style="edgeStyle=orthogonalEdgeStyle;rounded=0;orthogonalLoop=1;jettySize=auto;html=1;exitX=0.5;exitY=1;exitDx=0;exitDy=0;" edge="1" parent="1">
          <mxGeometry relative="1" as="geometry">
            <mxPoint x="1890.2857142857147" y="1970" as="targetPoint" />
            <mxPoint x="1890" y="1950" as="sourcePoint" />
          </mxGeometry>
        </mxCell>
        <mxCell id="ZvhyKIQb9n0oeBW530T0-238" style="edgeStyle=orthogonalEdgeStyle;rounded=0;orthogonalLoop=1;jettySize=auto;html=1;exitX=0.5;exitY=1;exitDx=0;exitDy=0;entryX=0;entryY=0.5;entryDx=0;entryDy=0;" edge="1" parent="1" source="ZvhyKIQb9n0oeBW530T0-239" target="ZvhyKIQb9n0oeBW530T0-228">
          <mxGeometry relative="1" as="geometry">
            <mxPoint x="1890.1379310344828" y="2020" as="targetPoint" />
            <Array as="points">
              <mxPoint x="1890" y="2020" />
              <mxPoint x="1665" y="2020" />
              <mxPoint x="1665" y="1750" />
            </Array>
          </mxGeometry>
        </mxCell>
        <mxCell id="ZvhyKIQb9n0oeBW530T0-239" value="index = (index + 1) % SIZE;" style="rounded=0;whiteSpace=wrap;html=1;" vertex="1" parent="1">
          <mxGeometry x="1800" y="1970" width="180" height="30" as="geometry" />
        </mxCell>
        <mxCell id="ZvhyKIQb9n0oeBW530T0-240" value="return;" style="ellipse;whiteSpace=wrap;html=1;" vertex="1" parent="1">
          <mxGeometry x="2090" y="1840" width="120" height="40" as="geometry" />
        </mxCell>
        <mxCell id="ZvhyKIQb9n0oeBW530T0-241" value="}" style="text;html=1;align=center;verticalAlign=middle;resizable=0;points=[];autosize=1;strokeColor=none;fillColor=none;" vertex="1" parent="1">
          <mxGeometry x="2160" y="1878" width="30" height="30" as="geometry" />
        </mxCell>
        <mxCell id="ZvhyKIQb9n0oeBW530T0-242" value="table[index]-&amp;gt;isDeleted = true;" style="rounded=0;whiteSpace=wrap;html=1;" vertex="1" parent="1">
          <mxGeometry x="1680" y="1860" width="105" height="30" as="geometry" />
        </mxCell>
        <mxCell id="ZvhyKIQb9n0oeBW530T0-243" value="1" style="text;html=1;align=center;verticalAlign=middle;resizable=0;points=[];autosize=1;strokeColor=none;fillColor=none;" vertex="1" parent="1">
          <mxGeometry x="1735" y="1818" width="30" height="30" as="geometry" />
        </mxCell>
        <mxCell id="ZvhyKIQb9n0oeBW530T0-244" value="0" style="text;html=1;align=center;verticalAlign=middle;resizable=0;points=[];autosize=1;strokeColor=none;fillColor=none;" vertex="1" parent="1">
          <mxGeometry x="1985" y="1818" width="30" height="30" as="geometry" />
        </mxCell>
        <mxCell id="ZvhyKIQb9n0oeBW530T0-246" style="edgeStyle=orthogonalEdgeStyle;rounded=0;orthogonalLoop=1;jettySize=auto;html=1;exitX=0.5;exitY=1;exitDx=0;exitDy=0;" edge="1" parent="1" source="ZvhyKIQb9n0oeBW530T0-245">
          <mxGeometry relative="1" as="geometry">
            <mxPoint x="2530.222222222222" y="100" as="targetPoint" />
          </mxGeometry>
        </mxCell>
        <mxCell id="ZvhyKIQb9n0oeBW530T0-245" value="void saveToFile(Student* table[])" style="shape=process;whiteSpace=wrap;html=1;backgroundOutline=1;" vertex="1" parent="1">
          <mxGeometry x="2390" y="50" width="280" height="30" as="geometry" />
        </mxCell>
        <mxCell id="ZvhyKIQb9n0oeBW530T0-247" value="FILE* file = fopen(&quot;Students.txt&quot;, &quot;w&quot;);" style="rounded=0;whiteSpace=wrap;html=1;" vertex="1" parent="1">
          <mxGeometry x="2440" y="100" width="180" height="30" as="geometry" />
        </mxCell>
        <mxCell id="ZvhyKIQb9n0oeBW530T0-270" value="" style="edgeStyle=orthogonalEdgeStyle;rounded=0;orthogonalLoop=1;jettySize=auto;html=1;" edge="1" parent="1">
          <mxGeometry relative="1" as="geometry">
            <mxPoint x="2523.9714285714285" y="130" as="sourcePoint" />
            <mxPoint x="2523.9714285714285" y="150" as="targetPoint" />
          </mxGeometry>
        </mxCell>
        <mxCell id="ZvhyKIQb9n0oeBW530T0-271" style="edgeStyle=orthogonalEdgeStyle;rounded=0;orthogonalLoop=1;jettySize=auto;html=1;exitX=1;exitY=0.5;exitDx=0;exitDy=0;" edge="1" parent="1" source="ZvhyKIQb9n0oeBW530T0-272">
          <mxGeometry relative="1" as="geometry">
            <mxPoint x="2773.9714285714285" y="260" as="targetPoint" />
          </mxGeometry>
        </mxCell>
        <mxCell id="ZvhyKIQb9n0oeBW530T0-272" value="" style="verticalLabelPosition=bottom;verticalAlign=top;html=1;shape=hexagon;perimeter=hexagonPerimeter2;arcSize=6;size=0.11951219512195121;" vertex="1" parent="1">
          <mxGeometry x="2419.4714285714285" y="150" width="205" height="50" as="geometry" />
        </mxCell>
        <mxCell id="ZvhyKIQb9n0oeBW530T0-273" value="for (int i = 0; i &amp;lt; SIZE; i++)&amp;nbsp;" style="text;html=1;align=center;verticalAlign=middle;whiteSpace=wrap;rounded=0;" vertex="1" parent="1">
          <mxGeometry x="2463.9714285714285" y="160" width="120" height="30" as="geometry" />
        </mxCell>
        <mxCell id="ZvhyKIQb9n0oeBW530T0-274" value="" style="edgeStyle=orthogonalEdgeStyle;rounded=0;orthogonalLoop=1;jettySize=auto;html=1;" edge="1" parent="1">
          <mxGeometry relative="1" as="geometry">
            <mxPoint x="2527.7028571428573" y="200" as="sourcePoint" />
            <mxPoint x="2527.942857142857" y="220" as="targetPoint" />
          </mxGeometry>
        </mxCell>
        <mxCell id="ZvhyKIQb9n0oeBW530T0-275" value="" style="edgeStyle=orthogonalEdgeStyle;rounded=0;orthogonalLoop=1;jettySize=auto;html=1;" edge="1" parent="1">
          <mxGeometry relative="1" as="geometry">
            <mxPoint x="2527.942857142857" y="200" as="sourcePoint" />
            <mxPoint x="2527.942857142857" y="220" as="targetPoint" />
          </mxGeometry>
        </mxCell>
        <mxCell id="ZvhyKIQb9n0oeBW530T0-276" style="edgeStyle=orthogonalEdgeStyle;rounded=0;orthogonalLoop=1;jettySize=auto;html=1;exitX=0;exitY=0.5;exitDx=0;exitDy=0;" edge="1" parent="1" source="ZvhyKIQb9n0oeBW530T0-277">
          <mxGeometry relative="1" as="geometry">
            <mxPoint x="2384" y="310" as="targetPoint" />
          </mxGeometry>
        </mxCell>
        <mxCell id="ZvhyKIQb9n0oeBW530T0-277" value="if (table[i] != nullptr &amp;amp;&amp;amp; !table[i]-&amp;gt;isDeleted)&amp;nbsp;" style="rhombus;whiteSpace=wrap;html=1;" vertex="1" parent="1">
          <mxGeometry x="2464" y="220" width="130" height="80" as="geometry" />
        </mxCell>
        <mxCell id="ZvhyKIQb9n0oeBW530T0-278" style="edgeStyle=orthogonalEdgeStyle;rounded=0;orthogonalLoop=1;jettySize=auto;html=1;exitX=0.5;exitY=1;exitDx=0;exitDy=0;" edge="1" parent="1" source="ZvhyKIQb9n0oeBW530T0-279">
          <mxGeometry relative="1" as="geometry">
            <mxPoint x="2534" y="360" as="targetPoint" />
            <Array as="points">
              <mxPoint x="2384" y="360" />
            </Array>
          </mxGeometry>
        </mxCell>
        <mxCell id="ZvhyKIQb9n0oeBW530T0-279" value="&lt;font style=&quot;font-size: 7px;&quot;&gt;fprintf(file, &quot;%s %s %s %s\n&quot;, table[i]-&amp;gt;fio.c_str(), table[i]-&amp;gt;phone.c_str(), table[i]-&amp;gt;passport.c_str(), table[i]-&amp;gt;birthDate.c_str());&lt;/font&gt;" style="rounded=0;whiteSpace=wrap;html=1;" vertex="1" parent="1">
          <mxGeometry x="2324" y="300" width="186" height="40" as="geometry" />
        </mxCell>
        <mxCell id="ZvhyKIQb9n0oeBW530T0-280" style="edgeStyle=orthogonalEdgeStyle;rounded=0;orthogonalLoop=1;jettySize=auto;html=1;exitX=1;exitY=0.5;exitDx=0;exitDy=0;" edge="1" parent="1" source="ZvhyKIQb9n0oeBW530T0-277">
          <mxGeometry relative="1" as="geometry">
            <mxPoint x="2534" y="360" as="targetPoint" />
            <Array as="points">
              <mxPoint x="2684" y="260" />
              <mxPoint x="2684" y="360" />
            </Array>
            <mxPoint x="2684" y="340" as="sourcePoint" />
          </mxGeometry>
        </mxCell>
        <mxCell id="ZvhyKIQb9n0oeBW530T0-281" value="1" style="text;html=1;align=center;verticalAlign=middle;resizable=0;points=[];autosize=1;strokeColor=none;fillColor=none;" vertex="1" parent="1">
          <mxGeometry x="2415" y="228" width="30" height="30" as="geometry" />
        </mxCell>
        <mxCell id="ZvhyKIQb9n0oeBW530T0-282" value="0" style="text;html=1;align=center;verticalAlign=middle;resizable=0;points=[];autosize=1;strokeColor=none;fillColor=none;" vertex="1" parent="1">
          <mxGeometry x="2605" y="228" width="30" height="30" as="geometry" />
        </mxCell>
        <mxCell id="ZvhyKIQb9n0oeBW530T0-283" value="" style="endArrow=classic;html=1;rounded=0;entryX=0;entryY=0.5;entryDx=0;entryDy=0;" edge="1" parent="1" target="ZvhyKIQb9n0oeBW530T0-272">
          <mxGeometry width="50" height="50" relative="1" as="geometry">
            <mxPoint x="2530" y="360" as="sourcePoint" />
            <mxPoint x="2530" y="380" as="targetPoint" />
            <Array as="points">
              <mxPoint x="2530" y="390" />
              <mxPoint x="2320" y="390" />
              <mxPoint x="2320" y="175" />
            </Array>
          </mxGeometry>
        </mxCell>
        <mxCell id="ZvhyKIQb9n0oeBW530T0-284" value="return;" style="ellipse;whiteSpace=wrap;html=1;" vertex="1" parent="1">
          <mxGeometry x="2730" y="360" width="120" height="40" as="geometry" />
        </mxCell>
        <mxCell id="ZvhyKIQb9n0oeBW530T0-285" value="}" style="text;html=1;align=center;verticalAlign=middle;resizable=0;points=[];autosize=1;strokeColor=none;fillColor=none;" vertex="1" parent="1">
          <mxGeometry x="2840" y="400" width="30" height="30" as="geometry" />
        </mxCell>
        <mxCell id="ZvhyKIQb9n0oeBW530T0-287" style="edgeStyle=orthogonalEdgeStyle;rounded=0;orthogonalLoop=1;jettySize=auto;html=1;exitX=0.5;exitY=1;exitDx=0;exitDy=0;" edge="1" parent="1" source="ZvhyKIQb9n0oeBW530T0-286">
          <mxGeometry relative="1" as="geometry">
            <mxPoint x="2790" y="310" as="targetPoint" />
          </mxGeometry>
        </mxCell>
        <mxCell id="ZvhyKIQb9n0oeBW530T0-286" value="fclose(file);" style="rounded=0;whiteSpace=wrap;html=1;" vertex="1" parent="1">
          <mxGeometry x="2700" y="260" width="180" height="30" as="geometry" />
        </mxCell>
        <mxCell id="ZvhyKIQb9n0oeBW530T0-289" style="edgeStyle=orthogonalEdgeStyle;rounded=0;orthogonalLoop=1;jettySize=auto;html=1;exitX=0.5;exitY=1;exitDx=0;exitDy=0;entryX=0.5;entryY=0;entryDx=0;entryDy=0;" edge="1" parent="1" source="ZvhyKIQb9n0oeBW530T0-288" target="ZvhyKIQb9n0oeBW530T0-284">
          <mxGeometry relative="1" as="geometry" />
        </mxCell>
        <mxCell id="ZvhyKIQb9n0oeBW530T0-288" value="cout &amp;lt;&amp;lt; &quot;Данные сохранены в файл.&quot; &amp;lt;&amp;lt; endl;" style="shape=parallelogram;perimeter=parallelogramPerimeter;whiteSpace=wrap;html=1;fixedSize=1;" vertex="1" parent="1">
          <mxGeometry x="2690" y="310" width="200" height="30" as="geometry" />
        </mxCell>
        <mxCell id="ZvhyKIQb9n0oeBW530T0-290" value="{" style="text;html=1;align=center;verticalAlign=middle;resizable=0;points=[];autosize=1;strokeColor=none;fillColor=none;" vertex="1" parent="1">
          <mxGeometry x="2405" y="78" width="30" height="30" as="geometry" />
        </mxCell>
        <mxCell id="ZvhyKIQb9n0oeBW530T0-292" style="edgeStyle=orthogonalEdgeStyle;rounded=0;orthogonalLoop=1;jettySize=auto;html=1;exitX=0.5;exitY=1;exitDx=0;exitDy=0;" edge="1" parent="1" source="ZvhyKIQb9n0oeBW530T0-291">
          <mxGeometry relative="1" as="geometry">
            <mxPoint x="2909.8" y="540" as="targetPoint" />
          </mxGeometry>
        </mxCell>
        <mxCell id="ZvhyKIQb9n0oeBW530T0-291" value="void loadFromFile(Student* table[], int&amp;amp; collisions)" style="shape=process;whiteSpace=wrap;html=1;backgroundOutline=1;" vertex="1" parent="1">
          <mxGeometry x="2770" y="490" width="280" height="30" as="geometry" />
        </mxCell>
        <mxCell id="ZvhyKIQb9n0oeBW530T0-293" value="FILE* file = fopen(&quot;Students.txt&quot;, &quot;r&quot;);" style="rounded=0;whiteSpace=wrap;html=1;" vertex="1" parent="1">
          <mxGeometry x="2820" y="540" width="180" height="30" as="geometry" />
        </mxCell>
        <mxCell id="ZvhyKIQb9n0oeBW530T0-294" value="" style="edgeStyle=orthogonalEdgeStyle;rounded=0;orthogonalLoop=1;jettySize=auto;html=1;" edge="1" parent="1">
          <mxGeometry relative="1" as="geometry">
            <mxPoint x="2913.9714285714285" y="570" as="sourcePoint" />
            <mxPoint x="2913.9714285714285" y="590" as="targetPoint" />
          </mxGeometry>
        </mxCell>
        <mxCell id="ZvhyKIQb9n0oeBW530T0-295" style="edgeStyle=orthogonalEdgeStyle;rounded=0;orthogonalLoop=1;jettySize=auto;html=1;exitX=1;exitY=0.5;exitDx=0;exitDy=0;" edge="1" parent="1" source="ZvhyKIQb9n0oeBW530T0-296">
          <mxGeometry relative="1" as="geometry">
            <mxPoint x="3210" y="660" as="targetPoint" />
          </mxGeometry>
        </mxCell>
        <mxCell id="ZvhyKIQb9n0oeBW530T0-296" value="" style="verticalLabelPosition=bottom;verticalAlign=top;html=1;shape=hexagon;perimeter=hexagonPerimeter2;arcSize=6;size=0.11951219512195121;" vertex="1" parent="1">
          <mxGeometry x="2809.4714285714285" y="590" width="205" height="50" as="geometry" />
        </mxCell>
        <mxCell id="ZvhyKIQb9n0oeBW530T0-297" value="for (int i = 0; i &amp;lt; SIZE; i++)&amp;nbsp;" style="text;html=1;align=center;verticalAlign=middle;whiteSpace=wrap;rounded=0;" vertex="1" parent="1">
          <mxGeometry x="2853.9714285714285" y="600" width="120" height="30" as="geometry" />
        </mxCell>
        <mxCell id="ZvhyKIQb9n0oeBW530T0-298" value="" style="edgeStyle=orthogonalEdgeStyle;rounded=0;orthogonalLoop=1;jettySize=auto;html=1;" edge="1" parent="1">
          <mxGeometry relative="1" as="geometry">
            <mxPoint x="2917.7028571428573" y="640" as="sourcePoint" />
            <mxPoint x="2917.942857142857" y="660" as="targetPoint" />
          </mxGeometry>
        </mxCell>
        <mxCell id="ZvhyKIQb9n0oeBW530T0-299" value="" style="edgeStyle=orthogonalEdgeStyle;rounded=0;orthogonalLoop=1;jettySize=auto;html=1;" edge="1" parent="1">
          <mxGeometry relative="1" as="geometry">
            <mxPoint x="2917.942857142857" y="640" as="sourcePoint" />
            <mxPoint x="2917.942857142857" y="660" as="targetPoint" />
          </mxGeometry>
        </mxCell>
        <mxCell id="ZvhyKIQb9n0oeBW530T0-300" style="edgeStyle=orthogonalEdgeStyle;rounded=0;orthogonalLoop=1;jettySize=auto;html=1;exitX=0;exitY=0.5;exitDx=0;exitDy=0;" edge="1" parent="1" source="ZvhyKIQb9n0oeBW530T0-301">
          <mxGeometry relative="1" as="geometry">
            <mxPoint x="2774" y="730" as="targetPoint" />
            <Array as="points">
              <mxPoint x="2774" y="700" />
            </Array>
          </mxGeometry>
        </mxCell>
        <mxCell id="ZvhyKIQb9n0oeBW530T0-301" value="if (table[i] != nullptr)" style="rhombus;whiteSpace=wrap;html=1;" vertex="1" parent="1">
          <mxGeometry x="2854" y="660" width="130" height="80" as="geometry" />
        </mxCell>
        <mxCell id="ZvhyKIQb9n0oeBW530T0-302" style="edgeStyle=orthogonalEdgeStyle;rounded=0;orthogonalLoop=1;jettySize=auto;html=1;exitX=0.429;exitY=0.959;exitDx=0;exitDy=0;exitPerimeter=0;" edge="1" parent="1" source="ZvhyKIQb9n0oeBW530T0-314">
          <mxGeometry relative="1" as="geometry">
            <mxPoint x="2924" y="800" as="targetPoint" />
            <Array as="points">
              <mxPoint x="2774" y="759" />
              <mxPoint x="2774" y="800" />
            </Array>
            <mxPoint x="2807" y="780.0000000000002" as="sourcePoint" />
          </mxGeometry>
        </mxCell>
        <mxCell id="ZvhyKIQb9n0oeBW530T0-304" style="edgeStyle=orthogonalEdgeStyle;rounded=0;orthogonalLoop=1;jettySize=auto;html=1;exitX=1;exitY=0.5;exitDx=0;exitDy=0;" edge="1" parent="1" source="ZvhyKIQb9n0oeBW530T0-301">
          <mxGeometry relative="1" as="geometry">
            <mxPoint x="2924" y="800" as="targetPoint" />
            <Array as="points">
              <mxPoint x="3074" y="700" />
              <mxPoint x="3074" y="800" />
            </Array>
            <mxPoint x="3074" y="780" as="sourcePoint" />
          </mxGeometry>
        </mxCell>
        <mxCell id="ZvhyKIQb9n0oeBW530T0-305" value="1" style="text;html=1;align=center;verticalAlign=middle;resizable=0;points=[];autosize=1;strokeColor=none;fillColor=none;" vertex="1" parent="1">
          <mxGeometry x="2805" y="668" width="30" height="30" as="geometry" />
        </mxCell>
        <mxCell id="ZvhyKIQb9n0oeBW530T0-306" value="0" style="text;html=1;align=center;verticalAlign=middle;resizable=0;points=[];autosize=1;strokeColor=none;fillColor=none;" vertex="1" parent="1">
          <mxGeometry x="2995" y="668" width="30" height="30" as="geometry" />
        </mxCell>
        <mxCell id="ZvhyKIQb9n0oeBW530T0-307" value="" style="endArrow=classic;html=1;rounded=0;entryX=0;entryY=0.5;entryDx=0;entryDy=0;" edge="1" parent="1" target="ZvhyKIQb9n0oeBW530T0-296">
          <mxGeometry width="50" height="50" relative="1" as="geometry">
            <mxPoint x="2920" y="800" as="sourcePoint" />
            <mxPoint x="2920" y="820" as="targetPoint" />
            <Array as="points">
              <mxPoint x="2920" y="830" />
              <mxPoint x="2710" y="830" />
              <mxPoint x="2710" y="615" />
            </Array>
          </mxGeometry>
        </mxCell>
        <mxCell id="ZvhyKIQb9n0oeBW530T0-314" value="&amp;nbsp;delete table[i];" style="rounded=0;whiteSpace=wrap;html=1;" vertex="1" parent="1">
          <mxGeometry x="2730" y="720" width="95" height="30" as="geometry" />
        </mxCell>
        <mxCell id="ZvhyKIQb9n0oeBW530T0-316" value="table[i] = nullptr;" style="rounded=0;whiteSpace=wrap;html=1;" vertex="1" parent="1">
          <mxGeometry x="2730" y="760" width="95" height="30" as="geometry" />
        </mxCell>
        <mxCell id="ZvhyKIQb9n0oeBW530T0-318" style="edgeStyle=orthogonalEdgeStyle;rounded=0;orthogonalLoop=1;jettySize=auto;html=1;exitX=0.5;exitY=1;exitDx=0;exitDy=0;" edge="1" parent="1" source="ZvhyKIQb9n0oeBW530T0-317">
          <mxGeometry relative="1" as="geometry">
            <mxPoint x="3220" y="720.0000000000002" as="targetPoint" />
          </mxGeometry>
        </mxCell>
        <mxCell id="ZvhyKIQb9n0oeBW530T0-317" value="char fio[100], phone[20], passport[20], birthDate[20];" style="rounded=0;whiteSpace=wrap;html=1;" vertex="1" parent="1">
          <mxGeometry x="3120" y="660" width="180" height="30" as="geometry" />
        </mxCell>
        <mxCell id="ZvhyKIQb9n0oeBW530T0-320" style="edgeStyle=orthogonalEdgeStyle;rounded=0;orthogonalLoop=1;jettySize=auto;html=1;exitX=0.5;exitY=1;exitDx=0;exitDy=0;" edge="1" parent="1" source="ZvhyKIQb9n0oeBW530T0-319">
          <mxGeometry relative="1" as="geometry">
            <mxPoint x="3218" y="820.0000000000002" as="targetPoint" />
          </mxGeometry>
        </mxCell>
        <mxCell id="ZvhyKIQb9n0oeBW530T0-337" style="edgeStyle=orthogonalEdgeStyle;rounded=0;orthogonalLoop=1;jettySize=auto;html=1;exitX=1;exitY=0.5;exitDx=0;exitDy=0;" edge="1" parent="1" source="ZvhyKIQb9n0oeBW530T0-319">
          <mxGeometry relative="1" as="geometry">
            <mxPoint x="3430" y="810" as="targetPoint" />
          </mxGeometry>
        </mxCell>
        <mxCell id="ZvhyKIQb9n0oeBW530T0-319" value="while (fscanf(file, &quot;%s %s %s %s&quot;, fio, phone, passport, birthDate) != EOF)&amp;nbsp;" style="rhombus;whiteSpace=wrap;html=1;" vertex="1" parent="1">
          <mxGeometry x="3128" y="720" width="180" height="80" as="geometry" />
        </mxCell>
        <mxCell id="ZvhyKIQb9n0oeBW530T0-321" value="Student student;" style="rounded=0;whiteSpace=wrap;html=1;" vertex="1" parent="1">
          <mxGeometry x="3128" y="820" width="180" height="30" as="geometry" />
        </mxCell>
        <mxCell id="ZvhyKIQb9n0oeBW530T0-322" style="edgeStyle=orthogonalEdgeStyle;rounded=0;orthogonalLoop=1;jettySize=auto;html=1;exitX=0.5;exitY=1;exitDx=0;exitDy=0;" edge="1" parent="1">
          <mxGeometry relative="1" as="geometry">
            <mxPoint x="3218" y="870.0000000000002" as="targetPoint" />
            <mxPoint x="3218" y="850" as="sourcePoint" />
          </mxGeometry>
        </mxCell>
        <mxCell id="ZvhyKIQb9n0oeBW530T0-323" value="&amp;nbsp;student.fio = fio;" style="rounded=0;whiteSpace=wrap;html=1;" vertex="1" parent="1">
          <mxGeometry x="3128" y="870" width="180" height="30" as="geometry" />
        </mxCell>
        <mxCell id="ZvhyKIQb9n0oeBW530T0-326" style="edgeStyle=orthogonalEdgeStyle;rounded=0;orthogonalLoop=1;jettySize=auto;html=1;exitX=0.5;exitY=1;exitDx=0;exitDy=0;" edge="1" parent="1">
          <mxGeometry relative="1" as="geometry">
            <mxPoint x="3218" y="920.0000000000002" as="targetPoint" />
            <mxPoint x="3218" y="900" as="sourcePoint" />
          </mxGeometry>
        </mxCell>
        <mxCell id="ZvhyKIQb9n0oeBW530T0-327" value="student.phone = phone;" style="rounded=0;whiteSpace=wrap;html=1;" vertex="1" parent="1">
          <mxGeometry x="3128" y="920" width="180" height="30" as="geometry" />
        </mxCell>
        <mxCell id="ZvhyKIQb9n0oeBW530T0-328" style="edgeStyle=orthogonalEdgeStyle;rounded=0;orthogonalLoop=1;jettySize=auto;html=1;exitX=0.5;exitY=1;exitDx=0;exitDy=0;" edge="1" parent="1">
          <mxGeometry relative="1" as="geometry">
            <mxPoint x="3218" y="970.0000000000002" as="targetPoint" />
            <mxPoint x="3218" y="950" as="sourcePoint" />
          </mxGeometry>
        </mxCell>
        <mxCell id="ZvhyKIQb9n0oeBW530T0-329" value="student.passport = passport;" style="rounded=0;whiteSpace=wrap;html=1;" vertex="1" parent="1">
          <mxGeometry x="3128" y="970" width="180" height="30" as="geometry" />
        </mxCell>
        <mxCell id="ZvhyKIQb9n0oeBW530T0-330" style="edgeStyle=orthogonalEdgeStyle;rounded=0;orthogonalLoop=1;jettySize=auto;html=1;exitX=0.5;exitY=1;exitDx=0;exitDy=0;" edge="1" parent="1">
          <mxGeometry relative="1" as="geometry">
            <mxPoint x="3218" y="1020.0000000000002" as="targetPoint" />
            <mxPoint x="3218" y="1000" as="sourcePoint" />
          </mxGeometry>
        </mxCell>
        <mxCell id="ZvhyKIQb9n0oeBW530T0-331" value="student.birthDate = birthDate;" style="rounded=0;whiteSpace=wrap;html=1;" vertex="1" parent="1">
          <mxGeometry x="3128" y="1020" width="180" height="30" as="geometry" />
        </mxCell>
        <mxCell id="ZvhyKIQb9n0oeBW530T0-332" style="edgeStyle=orthogonalEdgeStyle;rounded=0;orthogonalLoop=1;jettySize=auto;html=1;exitX=0.5;exitY=1;exitDx=0;exitDy=0;" edge="1" parent="1">
          <mxGeometry relative="1" as="geometry">
            <mxPoint x="3218" y="1070.0000000000002" as="targetPoint" />
            <mxPoint x="3218" y="1050" as="sourcePoint" />
          </mxGeometry>
        </mxCell>
        <mxCell id="ZvhyKIQb9n0oeBW530T0-333" value="student.isDeleted = false;" style="rounded=0;whiteSpace=wrap;html=1;" vertex="1" parent="1">
          <mxGeometry x="3128" y="1070" width="180" height="30" as="geometry" />
        </mxCell>
        <mxCell id="ZvhyKIQb9n0oeBW530T0-334" style="edgeStyle=orthogonalEdgeStyle;rounded=0;orthogonalLoop=1;jettySize=auto;html=1;exitX=0.5;exitY=1;exitDx=0;exitDy=0;" edge="1" parent="1">
          <mxGeometry relative="1" as="geometry">
            <mxPoint x="3218" y="1120.0000000000002" as="targetPoint" />
            <mxPoint x="3218" y="1100" as="sourcePoint" />
          </mxGeometry>
        </mxCell>
        <mxCell id="ZvhyKIQb9n0oeBW530T0-336" style="edgeStyle=orthogonalEdgeStyle;rounded=0;orthogonalLoop=1;jettySize=auto;html=1;exitX=0.5;exitY=1;exitDx=0;exitDy=0;entryX=0;entryY=0.5;entryDx=0;entryDy=0;" edge="1" parent="1" source="ZvhyKIQb9n0oeBW530T0-335" target="ZvhyKIQb9n0oeBW530T0-319">
          <mxGeometry relative="1" as="geometry" />
        </mxCell>
        <mxCell id="ZvhyKIQb9n0oeBW530T0-335" value="insert(table, student, collisions);&amp;nbsp;" style="rounded=0;whiteSpace=wrap;html=1;" vertex="1" parent="1">
          <mxGeometry x="3128" y="1120" width="180" height="30" as="geometry" />
        </mxCell>
        <mxCell id="ZvhyKIQb9n0oeBW530T0-339" style="edgeStyle=orthogonalEdgeStyle;rounded=0;orthogonalLoop=1;jettySize=auto;html=1;exitX=0.5;exitY=1;exitDx=0;exitDy=0;" edge="1" parent="1" source="ZvhyKIQb9n0oeBW530T0-338">
          <mxGeometry relative="1" as="geometry">
            <mxPoint x="3449.8" y="860" as="targetPoint" />
          </mxGeometry>
        </mxCell>
        <mxCell id="ZvhyKIQb9n0oeBW530T0-338" value="fclose(file);" style="rounded=0;whiteSpace=wrap;html=1;" vertex="1" parent="1">
          <mxGeometry x="3360" y="810" width="180" height="30" as="geometry" />
        </mxCell>
        <mxCell id="ZvhyKIQb9n0oeBW530T0-341" style="edgeStyle=orthogonalEdgeStyle;rounded=0;orthogonalLoop=1;jettySize=auto;html=1;exitX=0.5;exitY=1;exitDx=0;exitDy=0;" edge="1" parent="1" source="ZvhyKIQb9n0oeBW530T0-340">
          <mxGeometry relative="1" as="geometry">
            <mxPoint x="3455.3999999999996" y="920" as="targetPoint" />
          </mxGeometry>
        </mxCell>
        <mxCell id="ZvhyKIQb9n0oeBW530T0-340" value="cout &amp;lt;&amp;lt; &quot;Данные загружены из файла.&quot; &amp;lt;&amp;lt; endl;" style="shape=parallelogram;perimeter=parallelogramPerimeter;whiteSpace=wrap;html=1;fixedSize=1;" vertex="1" parent="1">
          <mxGeometry x="3360" y="860" width="190" height="40" as="geometry" />
        </mxCell>
        <mxCell id="ZvhyKIQb9n0oeBW530T0-342" value="return;" style="ellipse;whiteSpace=wrap;html=1;" vertex="1" parent="1">
          <mxGeometry x="3395" y="920" width="120" height="50" as="geometry" />
        </mxCell>
        <mxCell id="ZvhyKIQb9n0oeBW530T0-343" value="{" style="text;html=1;align=center;verticalAlign=middle;resizable=0;points=[];autosize=1;strokeColor=none;fillColor=none;" vertex="1" parent="1">
          <mxGeometry x="2755" y="528" width="30" height="30" as="geometry" />
        </mxCell>
        <mxCell id="ZvhyKIQb9n0oeBW530T0-344" value="}" style="text;html=1;align=center;verticalAlign=middle;resizable=0;points=[];autosize=1;strokeColor=none;fillColor=none;" vertex="1" parent="1">
          <mxGeometry x="3515" y="978" width="30" height="30" as="geometry" />
        </mxCell>
        <mxCell id="ZvhyKIQb9n0oeBW530T0-345" value="Student generateStudent()&amp;nbsp;" style="shape=process;whiteSpace=wrap;html=1;backgroundOutline=1;" vertex="1" parent="1">
          <mxGeometry x="2630" y="1230" width="280" height="30" as="geometry" />
        </mxCell>
        <mxCell id="ZvhyKIQb9n0oeBW530T0-346" style="edgeStyle=orthogonalEdgeStyle;rounded=0;orthogonalLoop=1;jettySize=auto;html=1;exitX=0.5;exitY=1;exitDx=0;exitDy=0;" edge="1" parent="1">
          <mxGeometry relative="1" as="geometry">
            <mxPoint x="2777.5" y="1280.0000000000002" as="targetPoint" />
            <mxPoint x="2777.5" y="1260" as="sourcePoint" />
          </mxGeometry>
        </mxCell>
        <mxCell id="ZvhyKIQb9n0oeBW530T0-347" value="Student student;" style="rounded=0;whiteSpace=wrap;html=1;" vertex="1" parent="1">
          <mxGeometry x="2687.5" y="1280" width="180" height="30" as="geometry" />
        </mxCell>
        <mxCell id="ZvhyKIQb9n0oeBW530T0-348" style="edgeStyle=orthogonalEdgeStyle;rounded=0;orthogonalLoop=1;jettySize=auto;html=1;exitX=0.5;exitY=1;exitDx=0;exitDy=0;" edge="1" parent="1">
          <mxGeometry relative="1" as="geometry">
            <mxPoint x="2777.5" y="1330.0000000000002" as="targetPoint" />
            <mxPoint x="2777.5" y="1310" as="sourcePoint" />
          </mxGeometry>
        </mxCell>
        <mxCell id="ZvhyKIQb9n0oeBW530T0-349" value="student.fio = &quot;Student&quot; + to_string(rand() % 1000);" style="rounded=0;whiteSpace=wrap;html=1;" vertex="1" parent="1">
          <mxGeometry x="2687.5" y="1330" width="180" height="30" as="geometry" />
        </mxCell>
        <mxCell id="ZvhyKIQb9n0oeBW530T0-350" style="edgeStyle=orthogonalEdgeStyle;rounded=0;orthogonalLoop=1;jettySize=auto;html=1;exitX=0.5;exitY=1;exitDx=0;exitDy=0;" edge="1" parent="1">
          <mxGeometry relative="1" as="geometry">
            <mxPoint x="2777.5" y="1380.0000000000002" as="targetPoint" />
            <mxPoint x="2777.5" y="1360" as="sourcePoint" />
          </mxGeometry>
        </mxCell>
        <mxCell id="ZvhyKIQb9n0oeBW530T0-351" value="student.phone = &quot;+7&quot; + to_string(rand() % 1000000000);" style="rounded=0;whiteSpace=wrap;html=1;" vertex="1" parent="1">
          <mxGeometry x="2687.5" y="1380" width="180" height="30" as="geometry" />
        </mxCell>
        <mxCell id="ZvhyKIQb9n0oeBW530T0-352" style="edgeStyle=orthogonalEdgeStyle;rounded=0;orthogonalLoop=1;jettySize=auto;html=1;exitX=0.5;exitY=1;exitDx=0;exitDy=0;" edge="1" parent="1">
          <mxGeometry relative="1" as="geometry">
            <mxPoint x="2777.5" y="1430.0000000000002" as="targetPoint" />
            <mxPoint x="2777.5" y="1410" as="sourcePoint" />
          </mxGeometry>
        </mxCell>
        <mxCell id="ZvhyKIQb9n0oeBW530T0-353" value="student.passport = to_string(rand() % 1000000000);" style="rounded=0;whiteSpace=wrap;html=1;" vertex="1" parent="1">
          <mxGeometry x="2687.5" y="1430" width="180" height="30" as="geometry" />
        </mxCell>
        <mxCell id="ZvhyKIQb9n0oeBW530T0-354" style="edgeStyle=orthogonalEdgeStyle;rounded=0;orthogonalLoop=1;jettySize=auto;html=1;exitX=0.5;exitY=1;exitDx=0;exitDy=0;" edge="1" parent="1">
          <mxGeometry relative="1" as="geometry">
            <mxPoint x="2777.5" y="1480.0000000000002" as="targetPoint" />
            <mxPoint x="2777.5" y="1460" as="sourcePoint" />
          </mxGeometry>
        </mxCell>
        <mxCell id="ZvhyKIQb9n0oeBW530T0-355" value="student.birthDate = generateBirthDate();" style="rounded=0;whiteSpace=wrap;html=1;" vertex="1" parent="1">
          <mxGeometry x="2687.5" y="1480" width="180" height="30" as="geometry" />
        </mxCell>
        <mxCell id="ZvhyKIQb9n0oeBW530T0-356" style="edgeStyle=orthogonalEdgeStyle;rounded=0;orthogonalLoop=1;jettySize=auto;html=1;exitX=0.5;exitY=1;exitDx=0;exitDy=0;" edge="1" parent="1">
          <mxGeometry relative="1" as="geometry">
            <mxPoint x="2777.5" y="1530.0000000000002" as="targetPoint" />
            <mxPoint x="2777.5" y="1510" as="sourcePoint" />
          </mxGeometry>
        </mxCell>
        <mxCell id="ZvhyKIQb9n0oeBW530T0-357" value="student.isDeleted = false;" style="rounded=0;whiteSpace=wrap;html=1;" vertex="1" parent="1">
          <mxGeometry x="2687.5" y="1530" width="180" height="30" as="geometry" />
        </mxCell>
        <mxCell id="ZvhyKIQb9n0oeBW530T0-358" style="edgeStyle=orthogonalEdgeStyle;rounded=0;orthogonalLoop=1;jettySize=auto;html=1;exitX=0.5;exitY=1;exitDx=0;exitDy=0;" edge="1" parent="1">
          <mxGeometry relative="1" as="geometry">
            <mxPoint x="2777.5" y="1580.0000000000002" as="targetPoint" />
            <mxPoint x="2777.5" y="1560" as="sourcePoint" />
          </mxGeometry>
        </mxCell>
        <mxCell id="ZvhyKIQb9n0oeBW530T0-360" value="return student;" style="ellipse;whiteSpace=wrap;html=1;" vertex="1" parent="1">
          <mxGeometry x="2718" y="1580" width="120" height="50" as="geometry" />
        </mxCell>
      </root>
    </mxGraphModel>
  </diagram>
</mxfile>
